{"glyphs":{"0":{"ha":915,"x_min":78,"x_max":838,"o":"m 456 -15 q 247 56 333 -15 q 119 241 160 126 q 78 500 78 356 q 175 871 78 726 q 457 1015 272 1015 q 740 871 642 1015 q 838 500 838 726 q 738 131 838 276 q 456 -15 639 -15 m 454 106 q 644 215 579 106 q 708 492 708 325 q 642 767 708 657 q 453 876 576 876 q 269 767 332 876 q 207 492 207 657 q 269 215 207 325 q 454 106 331 106 z "},"1":{"ha":544,"x_min":46,"x_max":428,"o":"m 118 683 l 46 774 q 172 882 104 817 q 281 1000 240 947 l 428 1000 l 428 0 l 301 0 l 301 849 q 118 683 225 757 z "},"2":{"ha":739,"x_min":57,"x_max":679,"o":"m 57 0 l 57 104 q 433 483 340 357 q 526 719 526 610 q 475 838 526 799 q 333 876 424 876 q 68 814 221 876 l 57 947 q 354 1015 222 1015 q 581 946 503 1015 q 658 744 658 876 q 569 485 658 617 q 222 118 481 354 l 679 118 l 679 0 l 57 0 z "},"3":{"ha":732,"x_min":44,"x_max":665,"o":"m 44 33 l 56 150 q 308 106 178 106 q 476 153 415 106 q 536 285 536 200 q 476 417 536 375 q 292 460 415 460 l 218 460 l 218 567 l 283 567 q 447 610 385 567 q 508 728 508 653 q 458 838 508 799 q 322 876 407 876 q 61 818 210 876 l 49 951 q 338 1015 206 1015 q 560 948 483 1015 q 638 758 638 881 q 479 536 638 594 q 665 281 665 486 q 570 63 665 140 q 321 -15 475 -15 q 176 -4 233 -15 q 44 33 118 7 z "},"4":{"ha":799,"x_min":28,"x_max":767,"o":"m 28 204 l 28 300 l 488 1000 l 631 1000 l 631 311 l 767 311 l 767 204 l 631 204 l 631 0 l 508 0 l 508 204 l 28 204 m 158 311 l 508 311 l 508 840 l 158 311 z "},"5":{"ha":728,"x_min":57,"x_max":667,"o":"m 172 1000 l 613 1000 l 613 868 l 264 868 l 225 635 q 340 649 276 649 q 576 567 485 649 q 667 326 667 486 q 565 75 667 165 q 299 -15 464 -15 q 57 22 169 -15 l 68 139 q 289 106 171 106 q 469 163 401 106 q 538 324 538 219 q 469 485 538 432 q 288 539 400 539 q 96 519 181 539 l 172 1000 z "},"6":{"ha":833,"x_min":76,"x_max":765,"o":"m 513 1015 q 701 990 607 1015 l 690 856 q 522 876 618 876 q 300 781 375 876 q 211 539 225 686 q 444 633 301 633 q 681 549 596 633 q 765 326 765 465 q 673 85 765 181 q 429 -10 581 -10 q 171 110 265 -10 q 76 450 76 231 q 190 861 76 707 q 513 1015 304 1015 m 425 107 q 578 168 522 107 q 635 324 635 229 q 577 473 635 415 q 421 531 519 531 q 207 436 288 531 q 223 275 203 347 q 295 155 243 203 q 425 107 347 107 z "},"7":{"ha":693,"x_min":32,"x_max":658,"o":"m 111 0 l 521 868 l 32 868 l 32 1000 l 658 1000 l 658 876 l 256 0 l 111 0 z "},"8":{"ha":856,"x_min":69,"x_max":788,"o":"m 69 278 q 238 532 69 457 q 143 615 179 560 q 107 744 107 669 q 194 941 107 867 q 428 1015 281 1015 q 660 941 574 1015 q 747 744 747 867 q 710 615 747 669 q 613 532 674 560 q 788 276 788 463 q 688 67 788 149 q 429 -15 588 -15 q 169 64 268 -15 q 69 278 69 143 m 425 561 q 566 605 514 561 q 618 724 618 649 q 565 836 618 790 q 426 882 511 882 q 290 836 343 882 q 236 724 236 790 q 288 605 236 649 q 425 561 339 561 m 199 276 q 263 140 199 189 q 425 90 328 90 q 590 140 524 90 q 657 276 657 189 q 594 420 657 369 q 426 471 532 471 q 260 420 321 471 q 199 276 199 369 z "},"9":{"ha":832,"x_min":69,"x_max":757,"o":"m 332 -10 q 142 17 221 -10 l 153 128 q 325 107 233 107 q 461 135 404 107 q 550 214 518 163 q 599 322 582 265 q 622 450 615 378 q 385 358 532 358 q 153 444 236 358 q 69 667 69 531 q 160 917 69 819 q 406 1015 251 1015 q 664 898 571 1015 q 757 557 757 781 q 651 145 757 300 q 332 -10 546 -10 m 408 876 q 256 817 313 876 q 199 668 199 758 q 255 519 199 576 q 411 461 311 461 q 625 551 550 461 q 577 783 632 689 q 408 876 522 876 z "},"\u0000":{"ha":0,"x_min":0,"x_max":0,"o":""},"\r":{"ha":0,"x_min":0,"x_max":0,"o":""}," ":{"ha":335,"x_min":0,"x_max":0,"o":""},"!":{"ha":383,"x_min":106,"x_max":276,"o":"m 140 349 l 118 1056 l 264 1056 l 242 349 l 140 349 m 192 -15 q 130 9 154 -15 q 106 69 106 33 q 130 134 106 108 q 192 160 154 160 q 252 134 228 160 q 276 69 276 108 q 252 9 276 33 q 192 -15 228 -15 z "},"\"":{"ha":522,"x_min":71,"x_max":451,"o":"m 96 710 l 71 1056 l 211 1056 l 186 710 l 96 710 m 336 710 l 311 1056 l 451 1056 l 426 710 l 336 710 z "},"#":{"ha":1026,"x_min":44,"x_max":981,"o":"m 488 0 l 571 294 l 329 294 l 246 0 l 139 0 l 222 294 l 44 294 l 71 388 l 249 388 l 314 613 l 131 613 l 163 719 l 343 719 l 424 1000 l 531 1000 l 450 719 l 692 719 l 772 1000 l 878 1000 l 799 719 l 981 719 l 949 613 l 768 613 l 704 388 l 890 388 l 863 294 l 678 294 l 593 0 l 488 0 m 597 388 l 661 613 l 419 613 l 356 388 l 597 388 z "},"$":{"ha":788,"x_min":78,"x_max":718,"o":"m 78 39 l 88 161 q 328 107 192 113 l 328 474 q 142 566 207 508 q 78 743 78 624 q 147 926 78 860 q 328 1011 215 993 l 328 1147 l 446 1147 l 446 1015 q 669 965 557 1010 l 660 832 q 446 876 533 871 l 446 567 q 648 469 578 531 q 718 281 718 408 q 644 76 718 147 q 446 -11 571 6 l 446 -172 l 328 -172 l 328 -15 q 78 39 204 -10 m 207 736 q 238 653 207 683 q 328 601 268 624 l 328 869 q 207 736 207 840 m 589 272 q 552 378 589 340 q 446 439 515 415 l 446 114 q 589 272 589 144 z "},"%":{"ha":1194,"x_min":43,"x_max":1151,"o":"m 543 753 q 472 563 543 638 q 292 489 401 489 q 113 563 182 489 q 43 753 43 636 q 113 943 43 871 q 292 1015 183 1015 q 472 943 401 1015 q 543 753 543 871 m 1006 1000 l 304 0 l 192 0 l 893 1000 l 1006 1000 m 292 911 q 185 867 225 911 q 144 750 144 824 q 184 627 144 674 q 292 581 224 581 q 401 627 361 581 q 442 750 442 674 q 399 867 442 822 q 292 911 357 911 m 1151 249 q 1081 59 1151 133 q 901 -15 1011 -15 q 722 59 792 -15 q 651 249 651 133 q 722 439 651 367 q 901 511 793 511 q 1081 439 1010 511 q 1151 249 1151 367 m 900 407 q 793 363 833 407 q 753 246 753 319 q 793 123 753 169 q 901 76 833 76 q 1011 123 971 76 q 1051 246 1051 169 q 1008 363 1051 318 q 900 407 965 407 z "},"&":{"ha":939,"x_min":69,"x_max":939,"o":"m 788 0 q 733 51 769 17 q 678 103 696 86 q 376 -15 529 -15 q 149 53 228 -15 q 69 242 69 121 q 124 403 69 340 q 288 522 179 467 q 217 690 231 610 q 211 768 208 728 q 288 948 217 881 q 471 1015 358 1015 q 642 952 578 1015 q 706 783 706 889 q 652 633 706 692 q 489 515 599 574 l 447 494 q 689 238 522 399 q 856 419 765 308 l 872 296 q 760 169 800 210 q 850 83 789 140 q 939 0 911 26 l 788 0 m 326 747 q 392 571 326 669 q 401 576 394 572 q 410 581 407 579 q 548 667 508 629 q 589 764 588 706 l 589 783 q 551 864 583 835 q 464 893 518 893 q 365 857 403 893 q 326 747 326 821 m 386 88 q 601 174 488 88 q 346 443 424 344 q 233 360 268 397 q 193 272 199 322 q 192 244 192 264 q 386 88 196 88 z "},"'":{"ha":282,"x_min":71,"x_max":211,"o":"m 96 710 l 71 1056 l 211 1056 l 186 710 l 96 710 z "},"(":{"ha":483,"x_min":75,"x_max":457,"o":"m 457 -236 l 321 -236 q 75 438 75 47 q 308 1111 75 843 l 456 1111 q 201 438 201 822 q 457 -236 201 51 z "},")":{"ha":483,"x_min":26,"x_max":408,"o":"m 26 -236 q 282 438 282 51 q 28 1111 282 822 l 175 1111 q 408 438 408 843 q 163 -236 408 47 l 26 -236 z "},"*":{"ha":619,"x_min":44,"x_max":575,"o":"m 422 494 l 311 667 l 199 493 l 114 556 l 243 715 l 44 768 l 76 868 l 268 794 l 257 1000 l 363 1000 l 351 796 l 543 869 l 575 769 l 376 717 l 507 557 l 422 494 z "},"+":{"ha":693,"x_min":46,"x_max":647,"o":"m 46 431 l 46 539 l 289 539 l 289 799 l 403 799 l 403 539 l 647 539 l 647 431 l 403 431 l 403 171 l 289 171 l 289 431 l 46 431 z "},",":{"ha":300,"x_min":42,"x_max":229,"o":"m 42 -214 l 96 142 l 229 142 q 117 -214 192 -36 l 42 -214 z "},"-":{"ha":456,"x_min":51,"x_max":406,"o":"m 51 385 l 51 511 l 406 511 l 406 385 l 51 385 z "},".":{"ha":300,"x_min":61,"x_max":239,"o":"m 150 -15 q 86 10 111 -15 q 61 74 61 36 q 86 139 61 113 q 150 165 111 165 q 213 139 188 165 q 239 74 239 113 q 213 10 239 36 q 150 -15 188 -15 z "},"/":{"ha":619,"x_min":10,"x_max":610,"o":"m 10 -69 l 483 1056 l 610 1056 l 136 -69 l 10 -69 z "},":":{"ha":338,"x_min":79,"x_max":257,"o":"m 168 554 q 104 580 129 554 q 79 643 79 606 q 104 708 79 682 q 168 735 129 735 q 231 708 206 735 q 257 643 257 682 q 231 580 257 606 q 168 554 206 554 m 168 -15 q 104 10 129 -15 q 79 74 79 36 q 104 139 79 113 q 168 165 129 165 q 231 139 206 165 q 257 74 257 113 q 231 10 257 36 q 168 -15 206 -15 z "},";":{"ha":338,"x_min":60,"x_max":257,"o":"m 168 554 q 104 580 129 554 q 79 643 79 606 q 104 708 79 682 q 168 735 129 735 q 231 708 206 735 q 257 643 257 682 q 231 580 257 606 q 168 554 206 554 m 60 -214 l 114 142 l 247 142 q 135 -214 210 -36 l 60 -214 z "},"<":{"ha":693,"x_min":46,"x_max":647,"o":"m 46 418 l 46 551 l 647 797 l 647 671 l 169 476 l 647 275 l 647 160 l 46 418 z "},"=":{"ha":693,"x_min":46,"x_max":647,"o":"m 647 554 l 46 554 l 46 665 l 647 665 l 647 554 m 647 304 l 46 304 l 46 407 l 647 407 l 647 304 z "},">":{"ha":693,"x_min":46,"x_max":647,"o":"m 647 418 l 46 160 l 46 275 l 524 476 l 46 671 l 46 797 l 647 551 l 647 418 z "},"?":{"ha":690,"x_min":44,"x_max":636,"o":"m 247 385 l 247 493 q 431 558 354 493 q 507 732 507 622 q 444 878 507 825 q 281 932 382 932 q 56 874 168 932 l 44 1010 q 292 1071 156 1071 q 547 987 457 1071 q 636 747 636 903 q 519 483 636 581 q 247 385 403 385 m 325 -15 q 263 9 288 -15 q 239 69 239 33 q 263 134 239 108 q 325 160 288 160 q 385 134 361 160 q 410 69 410 108 q 385 9 410 33 q 325 -15 361 -15 z "},"@":{"ha":1243,"x_min":64,"x_max":1179,"o":"m 864 -140 l 875 -215 q 631 -246 728 -246 q 224 -96 383 -246 q 64 300 64 54 q 225 715 64 551 q 638 878 386 878 q 1031 733 882 878 q 1179 343 1179 589 q 1117 84 1179 183 q 956 -15 1056 -15 q 855 14 890 -15 q 801 100 819 43 l 797 100 q 596 -15 732 -15 q 392 66 472 -15 q 313 294 313 147 q 397 530 313 444 q 596 615 482 615 q 785 506 732 615 l 789 506 l 789 600 l 897 600 l 897 197 q 915 96 897 129 q 976 63 932 63 q 1063 138 1031 63 q 1096 344 1096 213 q 969 669 1096 549 q 638 790 843 790 q 283 656 419 790 q 147 300 147 522 q 284 -41 147 89 q 631 -171 421 -171 q 864 -140 749 -171 m 614 89 q 735 144 686 89 q 785 293 785 200 q 737 437 785 381 q 614 493 689 493 q 483 438 533 493 q 432 293 432 383 q 484 143 432 197 q 614 89 536 89 z "},"A":{"ha":965,"x_min":26,"x_max":939,"o":"m 801 0 l 694 275 l 261 275 l 156 0 l 26 0 l 408 1000 l 557 1000 l 939 0 l 801 0 m 654 389 l 478 849 l 301 389 l 654 389 z "},"B":{"ha":838,"x_min":132,"x_max":768,"o":"m 132 0 l 132 1000 l 374 1000 q 722 754 722 1000 q 575 535 722 581 q 768 286 768 479 q 396 0 768 0 l 132 0 m 374 868 l 256 868 l 256 560 l 365 560 q 542 601 490 560 q 593 724 593 643 q 542 831 593 794 q 374 868 490 868 m 385 458 l 256 458 l 256 108 l 396 108 q 639 281 639 108 q 385 458 639 458 z "},"C":{"ha":878,"x_min":74,"x_max":813,"o":"m 801 149 l 813 31 q 583 -15 714 -15 q 214 124 354 -15 q 74 500 74 263 q 213 872 74 729 q 571 1015 353 1015 q 807 968 718 1015 l 796 833 q 579 876 707 876 q 306 769 410 876 q 203 492 203 663 q 309 211 203 317 q 593 106 415 106 q 801 149 703 106 z "},"D":{"ha":1004,"x_min":132,"x_max":936,"o":"m 132 0 l 132 1000 l 385 1000 q 792 862 649 1000 q 936 497 936 724 q 784 135 936 269 q 390 0 632 0 l 132 0 m 386 868 l 258 868 l 258 118 l 388 118 q 697 221 586 118 q 807 494 807 324 q 692 765 807 661 q 386 868 578 868 z "},"E":{"ha":793,"x_min":132,"x_max":714,"o":"m 132 0 l 132 1000 l 714 1000 l 714 868 l 258 868 l 258 569 l 676 569 l 676 451 l 258 451 l 258 118 l 714 118 l 714 0 l 132 0 z "},"F":{"ha":754,"x_min":132,"x_max":689,"o":"m 132 0 l 132 1000 l 689 1000 l 689 868 l 258 868 l 258 569 l 651 569 l 651 451 l 258 451 l 258 0 l 132 0 z "},"G":{"ha":963,"x_min":74,"x_max":871,"o":"m 871 22 q 615 -15 785 -15 l 599 -15 q 217 129 361 -10 q 74 500 74 268 q 224 873 74 731 q 610 1015 374 1015 q 864 965 764 1015 l 856 831 q 615 876 754 876 q 316 769 429 876 q 203 492 203 663 q 308 216 203 322 q 590 104 414 110 q 749 115 671 101 l 749 438 l 871 438 l 871 22 z "},"H":{"ha":1061,"x_min":132,"x_max":929,"o":"m 132 0 l 132 1000 l 258 1000 l 258 569 l 803 569 l 803 1000 l 929 1000 l 929 0 l 803 0 l 803 451 l 258 451 l 258 0 l 132 0 z "},"I":{"ha":390,"x_min":132,"x_max":258,"o":"m 132 0 l 132 1000 l 258 1000 l 258 0 l 132 0 z "},"J":{"ha":526,"x_min":47,"x_max":406,"o":"m 47 4 l 58 122 q 146 107 99 107 q 279 249 279 107 l 279 1000 l 406 1000 l 406 251 q 342 52 406 119 q 158 -15 278 -15 q 47 4 97 -15 z "},"K":{"ha":881,"x_min":132,"x_max":854,"o":"m 132 0 l 132 1000 l 258 1000 l 258 529 l 653 1000 l 815 1000 l 378 500 l 854 0 l 688 0 l 258 447 l 258 0 l 132 0 z "},"L":{"ha":722,"x_min":132,"x_max":658,"o":"m 132 0 l 132 1000 l 258 1000 l 258 118 l 658 118 l 658 0 l 132 0 z "},"M":{"ha":1303,"x_min":132,"x_max":1171,"o":"m 597 0 l 251 779 l 251 0 l 132 0 l 132 1000 l 288 1000 l 658 146 l 1013 1000 l 1171 1000 l 1171 0 l 1049 0 l 1049 790 l 714 0 l 597 0 z "},"N":{"ha":1068,"x_min":132,"x_max":936,"o":"m 132 0 l 132 1000 l 254 1000 l 815 203 l 815 1000 l 936 1000 l 936 0 l 813 0 l 251 778 l 251 0 l 132 0 z "},"O":{"ha":1121,"x_min":74,"x_max":1049,"o":"m 74 500 q 210 871 74 726 q 560 1015 347 1015 q 911 871 774 1015 q 1049 500 1049 726 q 912 128 1049 272 q 560 -15 775 -15 q 209 128 344 -15 q 74 500 74 271 m 303 213 q 353 159 303 213 q 560 106 403 106 q 817 213 717 106 q 918 492 918 319 q 817 769 918 661 q 558 876 715 876 q 302 769 401 876 q 203 492 203 663 q 303 213 203 319 z "},"P":{"ha":800,"x_min":132,"x_max":738,"o":"m 333 363 l 258 363 l 258 0 l 132 0 l 132 1000 l 346 1000 q 634 922 531 1000 q 738 686 738 844 q 628 443 738 524 q 333 363 518 363 m 353 868 l 258 868 l 258 476 l 339 476 q 608 678 608 476 q 353 868 608 868 z "},"Q":{"ha":1121,"x_min":74,"x_max":1068,"o":"m 819 -217 q 613 -160 689 -217 q 538 -18 538 -103 l 538 -14 q 203 135 332 -7 q 74 500 74 278 q 210 871 74 726 q 560 1015 347 1015 q 911 871 774 1015 q 1049 500 1049 726 q 937 156 1049 294 q 642 -7 825 18 q 828 -100 671 -100 q 1058 -57 953 -100 l 1068 -168 q 819 -217 958 -217 m 303 213 q 353 159 303 213 q 560 106 403 106 q 817 213 717 106 q 918 492 918 319 q 817 769 918 661 q 558 876 715 876 q 302 769 401 876 q 203 492 203 663 q 303 213 203 319 z "},"R":{"ha":824,"x_min":132,"x_max":790,"o":"m 132 0 l 132 1000 l 353 1000 q 624 924 522 1000 q 725 708 725 849 q 633 486 725 565 q 394 407 557 424 l 790 0 l 626 0 l 258 396 l 258 0 l 132 0 m 364 868 l 258 868 l 258 503 l 360 503 q 535 552 474 503 q 596 696 596 601 q 533 822 596 775 q 364 868 471 868 z "},"S":{"ha":768,"x_min":74,"x_max":714,"o":"m 74 39 l 82 161 q 353 106 204 106 q 524 149 464 106 q 583 272 583 193 q 531 392 583 351 q 371 460 479 433 q 143 561 213 497 q 74 743 74 625 q 156 940 74 864 q 399 1015 239 1015 q 664 965 536 1015 l 656 832 q 401 876 519 876 q 253 837 304 876 q 203 736 203 797 q 247 642 203 678 q 407 576 290 606 q 639 474 564 538 q 714 281 714 410 q 627 66 714 147 q 358 -15 540 -15 q 74 39 214 -15 z "},"T":{"ha":774,"x_min":31,"x_max":743,"o":"m 31 869 l 31 1000 l 743 1000 l 743 869 l 451 869 l 451 0 l 325 0 l 325 869 l 31 869 z "},"U":{"ha":1008,"x_min":125,"x_max":883,"o":"m 125 449 l 125 1000 l 251 1000 l 251 450 q 503 104 251 104 q 757 451 757 104 l 757 1000 l 883 1000 l 883 449 q 786 105 883 225 q 503 -15 689 -15 q 125 449 125 -15 z "},"V":{"ha":939,"x_min":21,"x_max":918,"o":"m 561 0 l 410 0 l 21 1000 l 171 1000 l 492 122 l 781 1000 l 918 1000 l 561 0 z "},"W":{"ha":1518,"x_min":22,"x_max":1496,"o":"m 1026 0 l 757 815 l 513 0 l 363 0 l 22 1000 l 167 1000 l 444 144 l 692 1000 l 833 1000 l 1104 143 l 1360 1000 l 1496 1000 l 1178 0 l 1026 0 z "},"X":{"ha":938,"x_min":26,"x_max":911,"o":"m 753 0 l 458 414 l 175 0 l 26 0 l 388 515 l 42 1000 l 204 1000 l 476 618 l 743 1000 l 893 1000 l 546 517 l 911 0 l 753 0 z "},"Y":{"ha":850,"x_min":15,"x_max":835,"o":"m 490 0 l 364 0 l 364 351 l 15 1000 l 164 1000 l 431 476 l 694 1000 l 835 1000 l 490 354 l 490 0 z "},"Z":{"ha":821,"x_min":49,"x_max":771,"o":"m 771 0 l 49 0 l 49 104 l 594 868 l 63 868 l 63 1000 l 756 1000 l 756 876 l 211 118 l 771 118 l 771 0 z "},"[":{"ha":488,"x_min":136,"x_max":443,"o":"m 136 -236 l 136 1111 l 443 1111 l 443 978 l 260 978 l 260 -129 l 443 -129 l 443 -236 l 136 -236 z "},"\\":{"ha":611,"x_min":10,"x_max":601,"o":"m 601 -69 l 474 -69 l 10 1056 l 138 1056 l 601 -69 z "},"]":{"ha":488,"x_min":44,"x_max":351,"o":"m 351 -236 l 44 -236 l 44 -129 l 226 -129 l 226 978 l 44 978 l 44 1111 l 351 1111 l 351 -236 z "},"^":{"ha":693,"x_min":75,"x_max":618,"o":"m 506 492 l 346 881 l 186 492 l 75 492 l 279 1000 l 413 1000 l 618 492 l 506 492 z "},"_":{"ha":682,"x_min":28,"x_max":654,"o":"m 28 -169 l 28 -47 l 654 -47 l 654 -169 l 28 -169 z "},"`":{"ha":694,"x_min":104,"x_max":388,"o":"m 308 793 l 104 1050 l 271 1050 l 388 793 l 308 793 z "},"a":{"ha":761,"x_min":69,"x_max":653,"o":"m 524 486 q 353 604 524 604 q 126 551 235 604 l 115 676 q 365 735 222 735 q 653 474 653 735 l 653 0 l 529 0 l 529 113 q 288 -15 436 -15 q 130 35 190 -15 q 69 174 69 85 q 136 324 69 275 q 350 397 203 374 q 499 438 451 414 q 524 486 524 449 m 529 365 q 363 315 478 335 q 235 272 274 300 q 196 185 196 243 q 234 103 196 132 q 332 75 272 75 q 454 114 401 75 q 529 210 507 153 l 529 365 z "},"b":{"ha":911,"x_min":115,"x_max":849,"o":"m 115 0 l 115 1056 l 238 1056 l 238 585 l 242 585 q 504 735 326 735 q 753 631 658 735 q 849 357 849 526 q 749 90 849 194 q 501 -15 649 -15 q 344 23 414 -15 q 240 133 275 61 l 236 133 l 236 0 l 115 0 m 483 99 q 654 169 586 99 q 722 349 722 239 q 653 532 722 460 q 483 604 585 604 q 308 533 378 604 q 239 349 239 461 q 308 169 239 239 q 483 99 378 99 z "},"c":{"ha":699,"x_min":61,"x_max":638,"o":"m 628 138 l 638 28 q 444 -15 554 -15 q 167 88 272 -15 q 61 364 61 190 q 162 632 61 529 q 435 735 263 735 q 633 692 544 735 l 622 567 q 446 604 550 604 q 259 535 329 604 q 189 358 189 467 q 261 169 189 240 q 451 99 333 99 q 628 138 547 99 z "},"d":{"ha":911,"x_min":61,"x_max":796,"o":"m 796 1056 l 796 0 l 675 0 l 675 136 l 671 136 q 407 -15 589 -15 q 158 89 254 -15 q 61 361 61 193 q 160 630 61 525 q 408 735 258 735 q 565 696 497 735 q 669 586 633 657 l 674 586 l 674 1056 l 796 1056 m 426 604 q 257 534 325 604 q 189 356 189 464 q 256 169 189 240 q 426 99 324 99 q 601 171 532 99 q 671 356 671 243 q 601 535 671 465 q 426 604 532 604 z "},"e":{"ha":776,"x_min":61,"x_max":721,"o":"m 671 24 q 457 -15 582 -15 q 167 86 272 -15 q 61 364 61 188 q 154 630 61 525 q 401 735 247 735 q 544 704 481 735 q 644 622 607 674 q 701 510 682 571 q 721 386 721 450 q 717 322 721 344 l 193 322 q 278 153 204 215 q 474 90 351 90 q 660 125 581 90 l 671 24 m 400 614 q 259 560 317 614 q 190 407 201 507 l 604 407 q 542 555 597 496 q 400 614 488 614 z "},"f":{"ha":503,"x_min":28,"x_max":493,"o":"m 28 597 l 28 719 l 150 719 l 150 839 q 210 1010 150 950 q 374 1071 269 1071 q 493 1056 451 1071 l 482 954 q 396 963 451 963 q 272 840 272 963 l 272 719 l 475 719 l 475 597 l 272 597 l 272 0 l 150 0 l 150 597 l 28 597 z "},"g":{"ha":894,"x_min":61,"x_max":779,"o":"m 658 64 l 658 150 l 654 150 q 399 -3 571 -3 q 155 98 249 -3 q 61 361 61 199 q 157 630 61 525 q 400 735 253 735 q 654 586 581 735 l 658 586 l 658 719 l 779 719 l 779 72 q 693 -192 779 -101 q 446 -282 607 -282 q 264 -257 331 -282 l 275 -154 q 425 -174 332 -174 q 658 64 658 -174 m 418 604 q 254 535 319 604 q 189 357 189 465 q 253 173 189 244 q 418 101 318 101 q 588 173 521 101 q 656 357 656 244 q 588 535 656 465 q 418 604 521 604 z "},"h":{"ha":858,"x_min":115,"x_max":750,"o":"m 629 385 q 583 547 629 486 q 438 607 536 607 q 288 545 339 607 q 238 375 238 483 l 238 0 l 115 0 l 115 1056 l 236 1056 l 236 603 l 240 603 q 471 735 306 735 q 681 651 613 735 q 750 429 750 568 l 750 0 l 629 0 l 629 385 z "},"i":{"ha":353,"x_min":90,"x_max":263,"o":"m 176 840 q 114 863 138 840 q 90 925 90 886 q 114 987 90 964 q 176 1010 138 1010 q 239 987 215 1010 q 263 925 263 964 q 238 864 263 888 q 176 840 214 840 m 115 0 l 115 719 l 238 719 l 238 0 l 115 0 z "},"j":{"ha":358,"x_min":-72,"x_max":268,"o":"m 182 840 q 119 863 143 840 q 96 925 96 886 q 119 987 96 964 q 182 1010 143 1010 q 244 986 219 1010 q 268 925 268 963 q 244 864 268 888 q 182 840 219 840 m 243 -53 q 189 -222 243 -162 q 31 -282 135 -282 q -72 -267 -37 -282 l -62 -161 q 8 -172 -29 -172 q 121 -44 121 -172 l 121 719 l 243 719 l 243 -53 z "},"k":{"ha":710,"x_min":115,"x_max":690,"o":"m 536 0 l 238 319 l 238 0 l 115 0 l 115 1056 l 238 1056 l 238 413 l 501 719 l 660 719 l 342 371 l 690 0 l 536 0 z "},"l":{"ha":353,"x_min":115,"x_max":238,"o":"m 115 0 l 115 1056 l 238 1056 l 238 0 l 115 0 z "},"m":{"ha":1353,"x_min":115,"x_max":1244,"o":"m 238 371 l 238 0 l 115 0 l 115 719 l 236 719 l 236 599 l 240 599 q 467 735 306 735 q 719 567 663 735 q 971 735 796 735 q 1177 651 1110 735 q 1244 429 1244 568 l 1244 0 l 1122 0 l 1122 381 q 1077 543 1122 483 q 936 603 1032 603 q 791 541 840 603 q 742 371 742 479 l 742 0 l 619 0 l 619 381 q 574 543 619 483 q 433 603 529 603 q 287 541 336 603 q 238 371 238 479 z "},"n":{"ha":858,"x_min":115,"x_max":750,"o":"m 115 0 l 115 719 l 236 719 l 236 599 l 240 599 q 472 735 307 735 q 682 652 614 735 q 750 429 750 569 l 750 0 l 629 0 l 629 381 q 583 542 629 482 q 438 603 536 603 q 288 541 339 603 q 238 371 238 479 l 238 0 l 115 0 z "},"o":{"ha":850,"x_min":61,"x_max":788,"o":"m 61 360 q 162 631 61 526 q 424 735 263 735 q 687 631 586 735 q 788 361 788 526 q 686 92 788 199 q 424 -15 585 -15 q 163 92 264 -15 q 61 360 61 199 m 424 99 q 597 169 532 99 q 661 356 661 240 q 592 534 661 464 q 424 604 524 604 q 254 535 319 604 q 189 356 189 465 q 253 169 189 240 q 424 99 318 99 z "},"p":{"ha":911,"x_min":115,"x_max":849,"o":"m 115 -264 l 115 719 l 236 719 l 236 585 l 240 585 q 347 695 278 656 q 504 735 415 735 q 754 631 660 735 q 849 357 849 528 q 749 90 849 194 q 501 -15 649 -15 q 346 24 415 -15 q 242 133 276 64 l 238 133 l 238 -264 l 115 -264 m 483 99 q 654 169 586 99 q 722 349 722 239 q 653 532 722 460 q 483 604 585 604 q 308 532 378 604 q 239 349 239 460 q 309 169 239 240 q 483 99 379 99 z "},"q":{"ha":911,"x_min":61,"x_max":796,"o":"m 796 719 l 796 -264 l 674 -264 l 674 136 l 669 136 q 407 -15 585 -15 q 158 89 254 -15 q 61 361 61 193 q 160 630 61 525 q 408 735 258 735 q 567 696 497 735 q 671 586 636 657 l 675 586 l 675 719 l 796 719 m 426 604 q 257 534 325 604 q 189 356 189 464 q 256 169 189 240 q 426 99 322 99 q 601 171 532 99 q 671 356 671 243 q 601 534 671 464 q 426 604 532 604 z "},"r":{"ha":529,"x_min":115,"x_max":486,"o":"m 115 0 l 115 719 l 235 719 l 235 599 l 239 599 q 486 735 300 735 l 481 593 q 295 533 353 594 q 238 349 238 472 l 238 0 l 115 0 z "},"s":{"ha":636,"x_min":69,"x_max":589,"o":"m 69 28 l 79 129 q 296 90 179 90 q 471 193 471 90 q 434 265 471 239 q 296 317 397 292 q 129 390 182 344 q 76 524 76 436 q 150 677 76 619 q 351 735 224 735 q 553 696 458 735 l 543 571 q 351 604 451 604 q 197 518 197 604 q 232 453 197 476 q 357 411 267 431 q 533 338 478 385 q 589 199 589 290 q 515 41 589 97 q 301 -15 442 -15 q 69 28 178 -15 z "},"t":{"ha":539,"x_min":26,"x_max":496,"o":"m 153 218 l 153 597 l 26 597 l 26 719 l 160 719 l 175 911 l 275 911 l 275 719 l 485 719 l 485 597 l 275 597 l 275 225 q 394 99 275 99 q 486 113 440 99 l 496 3 q 375 -15 454 -15 q 153 218 153 -15 z "},"u":{"ha":850,"x_min":108,"x_max":735,"o":"m 735 719 l 735 0 l 614 0 l 614 118 l 610 118 q 385 -15 546 -15 q 177 68 246 -15 q 108 290 108 151 l 108 719 l 231 719 l 231 318 q 276 158 231 217 q 417 99 321 99 q 562 163 511 99 q 613 331 613 226 l 613 719 l 735 719 z "},"v":{"ha":750,"x_min":19,"x_max":729,"o":"m 450 0 l 308 0 l 19 719 l 164 719 l 383 118 l 593 719 l 729 719 l 450 0 z "},"w":{"ha":1178,"x_min":19,"x_max":1158,"o":"m 793 0 l 586 569 l 397 0 l 257 0 l 19 719 l 161 719 l 340 128 l 524 719 l 658 719 l 860 125 l 1024 719 l 1158 719 l 935 0 l 793 0 z "},"x":{"ha":735,"x_min":24,"x_max":711,"o":"m 565 0 l 357 278 l 160 0 l 24 0 l 292 369 l 33 719 l 189 719 l 376 464 l 558 719 l 704 719 l 443 369 l 711 0 l 565 0 z "},"y":{"ha":756,"x_min":19,"x_max":735,"o":"m 190 -279 q 83 -264 125 -279 l 94 -160 q 168 -171 128 -171 q 248 -148 221 -171 q 299 -65 275 -125 l 321 -7 l 19 719 l 169 719 l 389 115 l 596 719 l 735 719 l 425 -62 q 387 -151 403 -119 q 344 -217 371 -183 q 281 -265 318 -250 q 190 -279 243 -279 z "},"z":{"ha":661,"x_min":51,"x_max":606,"o":"m 51 0 l 51 92 l 453 597 l 67 597 l 67 719 l 606 719 l 606 607 l 203 110 l 600 110 l 600 0 l 51 0 z "},"{":{"ha":504,"x_min":39,"x_max":419,"o":"m 39 493 q 221 656 221 493 q 202 784 221 703 q 183 907 183 865 q 279 1111 183 1024 l 419 1111 q 343 1008 368 1058 q 318 892 318 958 q 332 778 318 853 q 346 651 346 703 q 302 508 346 565 q 182 438 258 451 q 299 365 257 424 q 342 215 342 306 q 332 99 342 167 q 322 -15 322 31 q 417 -236 322 -135 l 292 -236 q 197 -31 197 -153 q 208 85 197 8 q 218 211 218 161 q 39 382 218 382 l 39 493 z "},"|":{"ha":440,"x_min":158,"x_max":282,"o":"m 282 -264 l 158 -264 l 158 1056 l 282 1056 l 282 -264 z "},"}":{"ha":504,"x_min":85,"x_max":465,"o":"m 322 438 q 202 508 246 451 q 158 651 158 565 q 172 778 158 703 q 186 892 186 853 q 161 1008 186 958 q 85 1111 136 1058 l 225 1111 q 321 907 321 1024 q 302 784 321 865 q 283 656 283 703 q 465 493 283 493 l 465 382 q 286 211 286 382 q 297 85 286 161 q 307 -31 307 8 q 213 -236 307 -153 l 88 -236 q 182 -15 182 -135 q 172 99 182 31 q 163 215 163 167 q 205 365 163 306 q 322 438 247 424 z "},"~":{"ha":693,"x_min":46,"x_max":647,"o":"m 54 390 l 46 499 q 222 564 125 564 q 361 534 278 564 q 485 504 444 504 q 639 567 579 504 l 647 457 q 486 390 590 390 q 346 420 428 390 q 221 450 264 450 q 54 390 128 450 z "}," ":{"ha":335,"x_min":0,"x_max":0,"o":""},"¡":{"ha":418,"x_min":106,"x_max":313,"o":"m 135 705 q 149 720 135 705 q 208 735 164 735 q 283 705 253 735 q 313 633 313 675 q 283 558 313 588 q 208 528 253 528 q 135 558 164 528 q 106 633 106 588 q 135 705 106 675 m 254 385 l 272 -264 l 135 -264 l 153 385 l 254 385 z "},"¢":{"ha":696,"x_min":61,"x_max":638,"o":"m 638 28 q 465 -14 558 -12 l 465 -172 l 350 -172 l 350 -4 q 139 119 217 21 q 61 364 61 217 q 138 604 61 506 q 350 725 214 703 l 350 890 l 465 890 l 465 733 q 633 692 558 728 l 622 567 q 446 604 550 604 q 259 535 329 604 q 189 358 189 467 q 261 169 189 240 q 451 99 333 99 q 628 138 547 99 l 638 28 z "},"£":{"ha":796,"x_min":47,"x_max":739,"o":"m 739 118 l 739 0 l 67 0 l 67 118 l 190 118 l 190 446 l 47 446 l 47 533 l 190 533 q 201 724 192 622 q 297 936 215 857 q 511 1015 378 1015 q 719 979 625 1015 l 708 846 q 528 876 621 876 q 382 824 433 876 q 324 686 331 772 q 318 533 321 636 l 643 533 l 643 446 l 317 446 l 317 118 l 739 118 z "},"¤":{"ha":833,"x_min":79,"x_max":754,"o":"m 79 218 l 178 317 q 124 490 124 393 q 176 663 124 586 l 79 761 l 150 831 l 249 728 q 417 786 322 786 q 582 729 510 786 l 683 831 l 754 761 l 656 664 q 710 490 710 588 q 654 315 710 390 l 754 218 l 683 147 l 581 250 q 417 197 508 197 q 251 251 322 197 l 150 147 l 79 218 m 417 292 q 547 343 496 292 q 599 482 599 394 q 547 622 599 569 q 417 675 496 675 q 286 622 336 675 q 236 482 236 569 q 286 343 236 394 q 417 292 336 292 z "},"¥":{"ha":875,"x_min":36,"x_max":839,"o":"m 775 192 l 503 192 l 503 0 l 376 0 l 376 192 l 103 192 l 103 272 l 376 272 l 376 379 l 369 388 l 103 388 l 103 469 l 325 469 l 36 1000 l 181 1000 l 443 504 l 444 504 l 704 1000 l 839 1000 l 551 469 l 775 469 l 775 388 l 508 388 l 503 379 l 503 272 l 775 272 l 775 192 z "},"¦":{"ha":440,"x_min":158,"x_max":282,"o":"m 158 486 l 158 1056 l 282 1056 l 282 486 l 158 486 m 158 -264 l 158 306 l 282 306 l 282 -264 l 158 -264 z "},"§":{"ha":713,"x_min":68,"x_max":646,"o":"m 333 -244 q 122 -204 219 -244 l 132 -99 q 324 -135 231 -133 q 356 -133 346 -135 q 490 -8 490 -125 q 486 28 490 11 q 436 96 476 69 q 308 142 396 122 q 138 210 196 165 q 69 336 79 256 q 68 396 65 361 q 179 596 72 511 q 100 776 100 658 q 103 799 100 785 q 184 956 110 897 q 379 1015 258 1015 q 590 975 483 1015 l 581 850 q 388 886 474 885 q 372 885 383 886 q 357 885 361 885 q 222 765 222 876 q 226 731 222 747 q 273 664 236 690 q 388 619 310 638 q 408 615 393 618 q 431 610 422 611 q 588 535 535 583 q 646 401 640 486 l 646 369 q 536 164 644 251 q 613 -10 613 104 q 612 -18 613 -12 q 611 -26 611 -24 q 530 -185 604 -125 q 333 -244 456 -244 m 367 236 q 451 210 414 225 q 535 343 528 263 q 536 361 536 349 q 497 457 535 421 q 368 517 460 493 q 264 550 311 531 q 178 415 185 494 q 176 396 176 408 q 221 298 178 335 q 367 236 264 261 z "},"¨":{"ha":694,"x_min":135,"x_max":558,"o":"m 217 842 q 158 865 181 842 q 135 925 135 889 q 158 985 135 961 q 217 1008 181 1008 q 278 985 254 1008 q 301 925 301 961 q 278 865 301 889 q 217 842 254 842 m 474 842 q 414 865 438 842 q 390 925 390 889 q 414 985 390 961 q 474 1008 438 1008 q 535 985 511 1008 q 558 925 558 961 q 535 865 558 889 q 474 842 511 842 z "},"©":{"ha":1332,"x_min":74,"x_max":1260,"o":"m 1094 928 q 1177 844 1094 928 q 1260 499 1260 760 q 1094 70 1260 238 q 665 -97 929 -97 q 238 70 403 -97 q 74 499 74 238 q 238 928 74 760 q 665 1097 401 1097 q 1094 928 929 1097 m 156 490 q 298 124 156 268 q 665 -19 440 -19 q 1040 122 904 -19 q 1176 490 1176 264 q 1033 861 1176 715 q 665 1007 890 1007 q 297 860 439 1007 q 156 490 156 714 m 843 256 l 851 164 q 703 135 785 135 q 440 231 539 135 q 340 492 340 326 q 440 750 340 651 q 694 849 539 849 q 850 818 785 849 l 840 713 q 700 739 783 739 q 514 669 585 739 q 443 486 443 599 q 515 300 443 369 q 710 231 588 231 q 843 256 782 231 z "},"ª":{"ha":543,"x_min":54,"x_max":458,"o":"m 363 847 q 251 918 363 918 q 97 882 169 918 l 90 975 q 260 1015 164 1015 q 458 839 458 1015 l 458 514 l 368 514 l 368 592 q 206 503 300 503 q 96 537 138 503 q 54 633 54 571 q 101 736 54 703 q 250 785 147 769 q 347 814 315 797 q 363 847 363 819 m 368 760 q 258 725 328 738 q 175 697 200 715 q 150 640 150 679 q 174 590 150 607 q 236 572 199 572 q 317 598 283 572 q 368 664 351 624 l 368 760 z "},"«":{"ha":778,"x_min":56,"x_max":710,"o":"m 279 42 l 56 360 l 258 679 l 400 679 l 196 360 l 407 42 l 279 42 m 582 42 l 358 360 l 561 679 l 703 679 l 499 360 l 710 42 l 582 42 z "},"¬":{"ha":693,"x_min":46,"x_max":647,"o":"m 46 431 l 46 539 l 647 539 l 647 171 l 533 171 l 533 431 l 46 431 z "},"­":{"ha":0,"x_min":0,"x_max":0,"o":""},"®":{"ha":818,"x_min":47,"x_max":771,"o":"m 771 701 q 668 435 771 539 q 408 331 565 331 q 150 435 253 331 q 47 701 47 540 q 150 967 47 863 q 408 1071 253 1071 q 668 967 565 1071 q 771 701 771 863 m 110 697 q 194 476 110 563 q 408 390 279 390 q 622 476 538 390 q 707 697 707 563 q 622 916 707 831 q 408 1001 538 1001 q 194 916 279 1001 q 110 697 110 831 m 483 499 l 358 657 l 358 499 l 288 499 l 288 899 l 386 899 q 494 868 454 899 q 535 782 535 838 q 433 663 535 682 l 571 499 l 483 499 m 390 828 l 358 828 l 358 707 l 389 707 q 464 776 464 707 q 444 814 464 800 q 390 828 424 828 z "},"¯":{"ha":694,"x_min":147,"x_max":547,"o":"m 147 863 l 147 960 l 547 960 l 547 863 l 147 863 z "},"°":{"ha":503,"x_min":43,"x_max":461,"o":"m 401 656 q 372 626 401 656 q 251 596 342 596 q 102 656 161 596 q 43 806 43 715 q 102 956 43 897 q 251 1015 161 1015 q 401 956 342 1015 q 461 806 461 897 q 401 656 461 715 m 167 715 q 183 698 167 715 q 251 681 199 681 q 336 715 304 681 q 368 803 368 750 q 336 889 368 856 q 251 922 304 922 q 167 889 199 922 q 135 803 135 856 q 167 715 135 750 z "},"±":{"ha":693,"x_min":46,"x_max":647,"o":"m 46 453 l 46 560 l 289 560 l 289 817 l 403 817 l 403 560 l 647 560 l 647 453 l 403 453 l 403 201 l 289 201 l 289 453 l 46 453 m 647 0 l 46 0 l 46 103 l 647 103 l 647 0 z "},"²":{"ha":521,"x_min":69,"x_max":433,"o":"m 79 478 l 79 544 q 265 706 207 640 q 324 826 324 771 q 214 914 324 914 q 78 883 139 914 l 69 982 q 232 1015 144 1015 q 426 849 426 1015 q 221 558 426 717 l 433 558 l 433 478 l 79 478 z "},"³":{"ha":521,"x_min":85,"x_max":439,"o":"m 85 494 l 92 574 q 231 553 157 553 q 338 635 338 553 q 309 698 338 681 q 228 715 281 715 l 181 715 l 181 782 l 217 782 q 299 798 271 782 q 326 854 326 814 q 229 919 326 919 q 100 894 164 919 l 92 988 q 253 1017 179 1017 q 383 981 338 1017 q 428 876 428 944 q 363 763 428 799 q 439 636 439 732 q 385 515 439 558 q 243 471 331 471 q 85 494 164 471 z "},"´":{"ha":694,"x_min":307,"x_max":590,"o":"m 388 793 l 307 793 l 424 1050 l 590 1050 l 388 793 z "},"¶":{"ha":807,"x_min":67,"x_max":675,"o":"m 376 -264 l 376 458 q 151 534 236 460 q 67 732 67 608 q 147 926 67 851 q 374 1000 228 1000 l 471 1000 l 471 -264 l 376 -264 m 581 -264 l 581 1000 l 675 1000 l 675 -264 l 581 -264 z "},"·":{"ha":694,"x_min":332,"x_max":503,"o":"m 479 478 q 467 467 479 478 q 418 456 456 456 q 356 478 381 456 q 332 536 332 500 q 356 598 332 575 q 418 621 379 621 q 479 598 456 621 q 503 536 503 575 q 479 478 503 500 z "},"¸":{"ha":694,"x_min":238,"x_max":515,"o":"m 249 -235 q 328 -249 288 -249 q 413 -190 413 -249 q 386 -144 413 -160 q 299 -122 360 -128 l 333 18 l 388 18 l 382 -75 q 515 -199 515 -89 q 471 -296 515 -260 q 344 -332 426 -332 q 238 -315 276 -332 l 249 -235 z "},"¹":{"ha":521,"x_min":76,"x_max":347,"o":"m 129 796 l 76 869 q 231 1000 172 939 l 347 1000 l 347 478 l 249 478 l 249 888 q 129 796 208 844 z "},"º":{"ha":596,"x_min":50,"x_max":546,"o":"m 50 760 q 119 944 50 872 q 297 1015 189 1015 q 476 944 406 1015 q 546 760 546 872 q 476 576 546 649 q 297 503 407 503 q 119 576 188 503 q 50 760 50 649 m 297 590 q 409 636 368 590 q 450 757 450 682 q 406 872 450 828 q 297 917 363 917 q 187 873 229 917 q 144 757 144 829 q 186 636 144 682 q 297 590 228 590 z "},"»":{"ha":783,"x_min":78,"x_max":731,"o":"m 206 42 l 78 42 l 289 360 l 86 679 l 226 679 l 429 360 l 206 42 m 507 42 l 379 42 l 590 360 l 388 679 l 528 679 l 731 360 l 507 42 z "},"¼":{"ha":1154,"x_min":76,"x_max":1110,"o":"m 129 796 l 76 869 q 231 1000 172 939 l 347 1000 l 347 478 l 249 478 l 249 888 q 129 796 208 844 m 194 0 l 896 1000 l 1010 1000 l 308 0 l 194 0 m 667 110 l 667 174 l 919 522 l 1024 522 l 1024 185 l 1110 185 l 1110 110 l 1024 110 l 1024 0 l 931 0 l 931 110 l 667 110 m 756 185 l 931 185 l 931 425 l 756 185 z "},"½":{"ha":1154,"x_min":76,"x_max":1067,"o":"m 129 796 l 76 869 q 231 1000 172 939 l 347 1000 l 347 478 l 249 478 l 249 888 q 129 796 208 844 m 138 0 l 839 1000 l 953 1000 l 251 0 l 138 0 m 713 0 l 713 67 q 899 228 840 163 q 957 349 957 293 q 847 436 957 436 q 711 406 772 436 l 703 504 q 865 538 778 538 q 1060 371 1060 538 q 854 81 1060 239 l 1067 81 l 1067 0 l 713 0 z "},"¾":{"ha":1154,"x_min":85,"x_max":1110,"o":"m 85 494 l 92 574 q 231 553 157 553 q 338 635 338 553 q 309 698 338 681 q 228 715 281 715 l 181 715 l 181 782 l 217 782 q 299 798 271 782 q 326 854 326 814 q 229 919 326 919 q 100 894 164 919 l 92 988 q 253 1017 179 1017 q 383 981 338 1017 q 428 876 428 944 q 363 763 428 799 q 439 636 439 732 q 385 515 439 558 q 243 471 331 471 q 85 494 164 471 m 211 0 l 913 1000 l 1026 1000 l 325 0 l 211 0 m 667 110 l 667 174 l 919 522 l 1024 522 l 1024 185 l 1110 185 l 1110 110 l 1024 110 l 1024 0 l 931 0 l 931 110 l 667 110 m 756 185 l 931 185 l 931 425 l 756 185 z "},"¿":{"ha":672,"x_min":44,"x_max":638,"o":"m 372 735 q 447 705 417 735 q 476 633 476 675 q 447 558 476 588 q 372 528 418 528 q 299 558 328 528 q 271 633 271 588 q 300 705 271 675 q 372 735 329 735 m 435 386 l 435 274 q 250 209 326 274 q 174 35 174 144 q 238 -115 174 -60 q 403 -169 301 -169 q 626 -118 515 -169 l 638 -225 q 393 -279 525 -279 q 137 -197 229 -279 q 44 35 44 -114 q 161 292 44 197 q 435 386 278 386 z "},"À":{"ha":965,"x_min":26,"x_max":939,"o":"m 439 1074 l 235 1331 l 401 1331 l 518 1074 l 439 1074 m 801 0 l 694 275 l 261 275 l 156 0 l 26 0 l 408 1000 l 557 1000 l 939 0 l 801 0 m 654 389 l 478 849 l 301 389 l 654 389 z "},"Á":{"ha":965,"x_min":26,"x_max":939,"o":"m 528 1074 l 447 1074 l 564 1331 l 731 1331 l 528 1074 m 801 0 l 694 275 l 261 275 l 156 0 l 26 0 l 408 1000 l 557 1000 l 939 0 l 801 0 m 654 389 l 478 849 l 301 389 l 654 389 z "},"Â":{"ha":965,"x_min":26,"x_max":939,"o":"m 621 1074 l 482 1239 l 343 1074 l 268 1074 l 408 1331 l 556 1331 l 696 1074 l 621 1074 m 801 0 l 694 275 l 261 275 l 156 0 l 26 0 l 408 1000 l 557 1000 l 939 0 l 801 0 m 654 389 l 478 849 l 301 389 l 654 389 z "},"Ã":{"ha":965,"x_min":26,"x_max":939,"o":"m 286 1110 l 272 1214 q 401 1274 339 1274 q 496 1251 439 1274 q 581 1228 553 1228 q 678 1283 636 1228 l 692 1181 q 582 1121 644 1121 q 485 1144 542 1121 q 400 1167 429 1167 q 286 1110 343 1167 m 801 0 l 694 275 l 261 275 l 156 0 l 26 0 l 408 1000 l 557 1000 l 939 0 l 801 0 m 654 389 l 478 849 l 301 389 l 654 389 z "},"Ä":{"ha":965,"x_min":26,"x_max":939,"o":"m 347 1122 q 288 1146 311 1122 q 265 1206 265 1169 q 288 1265 265 1242 q 347 1289 311 1289 q 408 1265 385 1289 q 432 1206 432 1242 q 408 1146 432 1169 q 347 1122 385 1122 m 604 1122 q 544 1146 568 1122 q 521 1206 521 1169 q 544 1265 521 1242 q 604 1289 568 1289 q 665 1265 642 1289 q 689 1206 689 1242 q 665 1146 689 1169 q 604 1122 642 1122 m 801 0 l 694 275 l 261 275 l 156 0 l 26 0 l 408 1000 l 557 1000 l 939 0 l 801 0 m 654 389 l 478 849 l 301 389 l 654 389 z "},"Å":{"ha":965,"x_min":26,"x_max":939,"o":"m 365 1123 q 340 1148 365 1123 q 315 1240 315 1172 q 365 1358 315 1308 q 483 1408 414 1408 q 601 1359 551 1408 q 650 1240 650 1310 q 601 1123 650 1172 q 483 1074 553 1074 q 365 1123 414 1074 m 483 1150 q 545 1175 522 1150 q 568 1238 568 1200 q 544 1300 568 1275 q 483 1325 521 1325 q 422 1300 447 1325 q 397 1238 397 1275 q 422 1175 397 1200 q 483 1150 446 1150 m 801 0 l 694 275 l 261 275 l 156 0 l 26 0 l 408 1000 l 557 1000 l 939 0 l 801 0 m 654 389 l 478 849 l 301 389 l 654 389 z "},"Æ":{"ha":1317,"x_min":21,"x_max":1238,"o":"m 656 0 l 656 256 l 304 256 l 154 0 l 21 0 l 596 1000 l 1238 1000 l 1238 868 l 782 868 l 782 569 l 1200 569 l 1200 451 l 782 451 l 782 118 l 1238 118 l 1238 0 l 656 0 m 656 369 l 656 867 l 367 369 l 656 369 z "},"Ç":{"ha":878,"x_min":74,"x_max":813,"o":"m 508 -333 q 401 -317 446 -333 l 413 -236 q 492 -249 447 -249 q 576 -192 576 -249 q 551 -144 576 -160 q 463 -124 525 -129 l 492 -8 q 187 153 300 18 q 74 500 74 288 q 213 872 74 729 q 571 1015 353 1015 q 807 968 718 1015 l 796 833 q 579 876 707 876 q 306 769 410 876 q 203 492 203 663 q 309 211 203 317 q 593 106 415 106 q 801 149 703 106 l 813 31 q 583 -15 714 -15 q 550 -14 560 -15 l 547 -76 q 681 -199 681 -90 q 636 -297 681 -260 q 508 -333 592 -333 z "},"È":{"ha":793,"x_min":132,"x_max":714,"o":"m 403 1074 l 199 1331 l 365 1331 l 482 1074 l 403 1074 m 132 0 l 132 1000 l 714 1000 l 714 868 l 258 868 l 258 569 l 676 569 l 676 451 l 258 451 l 258 118 l 714 118 l 714 0 l 132 0 z "},"É":{"ha":793,"x_min":132,"x_max":714,"o":"m 457 1074 l 376 1074 l 493 1331 l 660 1331 l 457 1074 m 132 0 l 132 1000 l 714 1000 l 714 868 l 258 868 l 258 569 l 676 569 l 676 451 l 258 451 l 258 118 l 714 118 l 714 0 l 132 0 z "},"Ê":{"ha":793,"x_min":132,"x_max":714,"o":"m 565 1074 l 426 1239 l 288 1074 l 213 1074 l 353 1331 l 500 1331 l 640 1074 l 565 1074 m 132 0 l 132 1000 l 714 1000 l 714 868 l 258 868 l 258 569 l 676 569 l 676 451 l 258 451 l 258 118 l 714 118 l 714 0 l 132 0 z "},"Ë":{"ha":793,"x_min":132,"x_max":714,"o":"m 296 1122 q 237 1146 260 1122 q 214 1206 214 1169 q 237 1265 214 1242 q 296 1289 260 1289 q 357 1265 333 1289 q 381 1206 381 1242 q 357 1146 381 1169 q 296 1122 333 1122 m 553 1122 q 493 1146 517 1122 q 469 1206 469 1169 q 493 1265 469 1242 q 553 1289 517 1289 q 614 1265 590 1289 q 638 1206 638 1242 q 614 1146 638 1169 q 553 1122 590 1122 m 132 0 l 132 1000 l 714 1000 l 714 868 l 258 868 l 258 569 l 676 569 l 676 451 l 258 451 l 258 118 l 714 118 l 714 0 l 132 0 z "},"Ì":{"ha":390,"x_min":-49,"x_max":258,"o":"m 156 1074 l -49 1331 l 118 1331 l 235 1074 l 156 1074 m 132 0 l 132 1000 l 258 1000 l 258 0 l 132 0 z "},"Í":{"ha":390,"x_min":132,"x_max":438,"o":"m 235 1074 l 154 1074 l 271 1331 l 438 1331 l 235 1074 m 132 0 l 132 1000 l 258 1000 l 258 0 l 132 0 z "},"Î":{"ha":390,"x_min":-19,"x_max":408,"o":"m 333 1074 l 194 1239 l 56 1074 l -19 1074 l 121 1331 l 268 1331 l 408 1074 l 333 1074 m 132 0 l 132 1000 l 258 1000 l 258 0 l 132 0 z "},"Ï":{"ha":390,"x_min":-18,"x_max":406,"o":"m 64 1122 q 5 1146 28 1122 q -18 1206 -18 1169 q 5 1265 -18 1242 q 64 1289 28 1289 q 125 1265 101 1289 q 149 1206 149 1242 q 125 1146 149 1169 q 64 1122 101 1122 m 321 1122 q 261 1146 285 1122 q 238 1206 238 1169 q 261 1265 238 1242 q 321 1289 285 1289 q 382 1265 358 1289 q 406 1206 406 1242 q 382 1146 406 1169 q 321 1122 358 1122 m 132 0 l 132 1000 l 258 1000 l 258 0 l 132 0 z "},"Ð":{"ha":1014,"x_min":17,"x_max":944,"o":"m 399 0 l 140 0 l 140 443 l 17 443 l 17 550 l 140 550 l 140 1000 l 393 1000 q 801 862 658 1000 q 944 497 944 724 q 792 135 944 269 q 399 0 640 0 m 267 118 l 397 118 q 706 221 596 118 q 815 494 815 324 q 701 765 815 661 q 394 868 586 868 l 267 868 l 267 550 l 515 550 l 515 443 l 267 443 l 267 118 z "},"Ñ":{"ha":1068,"x_min":132,"x_max":936,"o":"m 338 1110 l 324 1214 q 453 1274 390 1274 q 547 1251 490 1274 q 632 1228 604 1228 q 729 1283 688 1228 l 743 1181 q 633 1121 696 1121 q 537 1144 593 1121 q 451 1167 481 1167 q 338 1110 394 1167 m 132 0 l 132 1000 l 254 1000 l 815 203 l 815 1000 l 936 1000 l 936 0 l 813 0 l 251 778 l 251 0 l 132 0 z "},"Ò":{"ha":1121,"x_min":74,"x_max":1049,"o":"m 522 1074 l 318 1331 l 485 1331 l 601 1074 l 522 1074 m 74 500 q 210 871 74 726 q 560 1015 347 1015 q 911 871 774 1015 q 1049 500 1049 726 q 912 128 1049 272 q 560 -15 775 -15 q 209 128 344 -15 q 74 500 74 271 m 303 213 q 353 159 303 213 q 560 106 403 106 q 817 213 717 106 q 918 492 918 319 q 817 769 918 661 q 558 876 715 876 q 302 769 401 876 q 203 492 203 663 q 303 213 203 319 z "},"Ó":{"ha":1121,"x_min":74,"x_max":1049,"o":"m 601 1074 l 521 1074 l 638 1331 l 804 1331 l 601 1074 m 74 500 q 210 871 74 726 q 560 1015 347 1015 q 911 871 774 1015 q 1049 500 1049 726 q 912 128 1049 272 q 560 -15 775 -15 q 209 128 344 -15 q 74 500 74 271 m 303 213 q 353 159 303 213 q 560 106 403 106 q 817 213 717 106 q 918 492 918 319 q 817 769 918 661 q 558 876 715 876 q 302 769 401 876 q 203 492 203 663 q 303 213 203 319 z "},"Ô":{"ha":1121,"x_min":74,"x_max":1049,"o":"m 700 1074 l 561 1239 l 422 1074 l 347 1074 l 488 1331 l 635 1331 l 775 1074 l 700 1074 m 74 500 q 210 871 74 726 q 560 1015 347 1015 q 911 871 774 1015 q 1049 500 1049 726 q 912 128 1049 272 q 560 -15 775 -15 q 209 128 344 -15 q 74 500 74 271 m 303 213 q 353 159 303 213 q 560 106 403 106 q 817 213 717 106 q 918 492 918 319 q 817 769 918 661 q 558 876 715 876 q 302 769 401 876 q 203 492 203 663 q 303 213 203 319 z "},"Õ":{"ha":1121,"x_min":74,"x_max":1049,"o":"m 365 1110 l 351 1214 q 481 1274 418 1274 q 575 1251 518 1274 q 660 1228 632 1228 q 757 1283 715 1228 l 771 1181 q 661 1121 724 1121 q 565 1144 621 1121 q 479 1167 508 1167 q 365 1110 422 1167 m 74 500 q 210 871 74 726 q 560 1015 347 1015 q 911 871 774 1015 q 1049 500 1049 726 q 912 128 1049 272 q 560 -15 775 -15 q 209 128 344 -15 q 74 500 74 271 m 303 213 q 353 159 303 213 q 560 106 403 106 q 817 213 717 106 q 918 492 918 319 q 817 769 918 661 q 558 876 715 876 q 302 769 401 876 q 203 492 203 663 q 303 213 203 319 z "},"Ö":{"ha":1121,"x_min":74,"x_max":1049,"o":"m 431 1122 q 372 1146 394 1122 q 349 1206 349 1169 q 372 1265 349 1242 q 431 1289 394 1289 q 492 1265 468 1289 q 515 1206 515 1242 q 492 1146 515 1169 q 431 1122 468 1122 m 688 1122 q 628 1146 651 1122 q 604 1206 604 1169 q 628 1265 604 1242 q 688 1289 651 1289 q 749 1265 725 1289 q 772 1206 772 1242 q 749 1146 772 1169 q 688 1122 725 1122 m 74 500 q 210 871 74 726 q 560 1015 347 1015 q 911 871 774 1015 q 1049 500 1049 726 q 912 128 1049 272 q 560 -15 775 -15 q 209 128 344 -15 q 74 500 74 271 m 303 213 q 353 159 303 213 q 560 106 403 106 q 817 213 717 106 q 918 492 918 319 q 817 769 918 661 q 558 876 715 876 q 302 769 401 876 q 203 492 203 663 q 303 213 203 319 z "},"×":{"ha":693,"x_min":68,"x_max":625,"o":"m 549 204 l 346 407 l 150 211 l 75 288 l 271 482 l 68 685 l 144 761 l 346 558 l 542 753 l 617 678 l 422 482 l 625 281 l 549 204 z "},"Ø":{"ha":1121,"x_min":67,"x_max":1058,"o":"m 560 -15 q 263 83 388 -15 l 189 0 l 67 0 l 194 146 q 74 500 74 283 q 210 871 74 726 q 560 1015 347 1015 q 861 914 736 1015 l 936 1000 l 1058 1000 l 929 850 q 1049 500 1049 708 q 912 128 1049 272 q 560 -15 775 -15 m 203 492 q 279 247 203 346 l 768 806 q 558 876 681 876 q 302 769 401 876 q 203 492 203 663 m 560 106 q 817 213 717 106 q 918 492 918 319 q 836 742 918 643 l 344 179 q 560 106 436 106 z "},"Ù":{"ha":1008,"x_min":125,"x_max":883,"o":"m 465 1074 l 261 1331 l 428 1331 l 544 1074 l 465 1074 m 125 449 l 125 1000 l 251 1000 l 251 450 q 503 104 251 104 q 757 451 757 104 l 757 1000 l 883 1000 l 883 449 q 786 105 883 225 q 503 -15 689 -15 q 125 449 125 -15 z "},"Ú":{"ha":1008,"x_min":125,"x_max":883,"o":"m 544 1074 l 464 1074 l 581 1331 l 747 1331 l 544 1074 m 125 449 l 125 1000 l 251 1000 l 251 450 q 503 104 251 104 q 757 451 757 104 l 757 1000 l 883 1000 l 883 449 q 786 105 883 225 q 503 -15 689 -15 q 125 449 125 -15 z "},"Û":{"ha":1008,"x_min":125,"x_max":883,"o":"m 643 1074 l 504 1239 l 365 1074 l 290 1074 l 431 1331 l 578 1331 l 718 1074 l 643 1074 m 125 449 l 125 1000 l 251 1000 l 251 450 q 503 104 251 104 q 757 451 757 104 l 757 1000 l 883 1000 l 883 449 q 786 105 883 225 q 503 -15 689 -15 q 125 449 125 -15 z "},"Ü":{"ha":1008,"x_min":125,"x_max":883,"o":"m 375 1122 q 316 1146 339 1122 q 293 1206 293 1169 q 316 1265 293 1242 q 375 1289 339 1289 q 436 1265 413 1289 q 460 1206 460 1242 q 436 1146 460 1169 q 375 1122 413 1122 m 632 1122 q 572 1146 596 1122 q 549 1206 549 1169 q 572 1265 549 1242 q 632 1289 596 1289 q 693 1265 669 1289 q 717 1206 717 1242 q 693 1146 717 1169 q 632 1122 669 1122 m 125 449 l 125 1000 l 251 1000 l 251 450 q 503 104 251 104 q 757 451 757 104 l 757 1000 l 883 1000 l 883 449 q 786 105 883 225 q 503 -15 689 -15 q 125 449 125 -15 z "},"Ý":{"ha":850,"x_min":15,"x_max":835,"o":"m 465 1074 l 385 1074 l 501 1331 l 668 1331 l 465 1074 m 490 0 l 364 0 l 364 351 l 15 1000 l 164 1000 l 431 476 l 694 1000 l 835 1000 l 490 354 l 490 0 z "},"Þ":{"ha":800,"x_min":132,"x_max":738,"o":"m 333 183 l 258 183 l 258 0 l 132 0 l 132 1000 l 258 1000 l 258 821 l 346 821 q 634 742 531 821 q 738 506 738 664 q 628 263 738 343 q 333 183 518 183 m 353 688 l 258 688 l 258 297 l 339 297 q 608 497 608 297 q 353 688 608 688 z "},"ß":{"ha":854,"x_min":111,"x_max":793,"o":"m 111 0 l 111 743 q 191 987 111 903 q 418 1071 271 1071 q 640 994 560 1071 q 721 788 721 918 q 682 642 721 704 q 572 553 643 581 q 793 289 793 500 q 715 67 793 149 q 492 -15 636 -15 q 328 11 390 -15 l 339 115 q 475 96 389 96 q 619 149 569 96 q 668 289 668 203 q 601 435 668 383 q 419 486 533 486 l 364 486 l 364 582 l 408 582 q 548 633 500 582 q 596 763 596 685 q 546 897 596 850 q 415 943 496 943 q 276 886 321 943 q 232 736 232 829 l 232 0 l 111 0 z "},"à":{"ha":761,"x_min":69,"x_max":653,"o":"m 342 793 l 138 1050 l 304 1050 l 421 793 l 342 793 m 524 486 q 353 604 524 604 q 126 551 235 604 l 115 676 q 365 735 222 735 q 653 474 653 735 l 653 0 l 529 0 l 529 113 q 288 -15 436 -15 q 130 35 190 -15 q 69 174 69 85 q 136 324 69 275 q 350 397 203 374 q 499 438 451 414 q 524 486 524 449 m 529 365 q 363 315 478 335 q 235 272 274 300 q 196 185 196 243 q 234 103 196 132 q 332 75 272 75 q 454 114 401 75 q 529 210 507 153 l 529 365 z "},"á":{"ha":761,"x_min":69,"x_max":653,"o":"m 419 793 l 339 793 l 456 1050 l 622 1050 l 419 793 m 524 486 q 353 604 524 604 q 126 551 235 604 l 115 676 q 365 735 222 735 q 653 474 653 735 l 653 0 l 529 0 l 529 113 q 288 -15 436 -15 q 130 35 190 -15 q 69 174 69 85 q 136 324 69 275 q 350 397 203 374 q 499 438 451 414 q 524 486 524 449 m 529 365 q 363 315 478 335 q 235 272 274 300 q 196 185 196 243 q 234 103 196 132 q 332 75 272 75 q 454 114 401 75 q 529 210 507 153 l 529 365 z "},"â":{"ha":761,"x_min":69,"x_max":653,"o":"m 519 793 l 381 958 l 242 793 l 167 793 l 307 1050 l 454 1050 l 594 793 l 519 793 m 524 486 q 353 604 524 604 q 126 551 235 604 l 115 676 q 365 735 222 735 q 653 474 653 735 l 653 0 l 529 0 l 529 113 q 288 -15 436 -15 q 130 35 190 -15 q 69 174 69 85 q 136 324 69 275 q 350 397 203 374 q 499 438 451 414 q 524 486 524 449 m 529 365 q 363 315 478 335 q 235 272 274 300 q 196 185 196 243 q 234 103 196 132 q 332 75 272 75 q 454 114 401 75 q 529 210 507 153 l 529 365 z "},"ã":{"ha":761,"x_min":69,"x_max":653,"o":"m 185 829 l 171 933 q 300 993 238 993 q 394 970 338 993 q 479 947 451 947 q 576 1003 535 947 l 590 900 q 481 840 543 840 q 384 863 440 840 q 299 886 328 886 q 185 829 242 886 m 524 486 q 353 604 524 604 q 126 551 235 604 l 115 676 q 365 735 222 735 q 653 474 653 735 l 653 0 l 529 0 l 529 113 q 288 -15 436 -15 q 130 35 190 -15 q 69 174 69 85 q 136 324 69 275 q 350 397 203 374 q 499 438 451 414 q 524 486 524 449 m 529 365 q 363 315 478 335 q 235 272 274 300 q 196 185 196 243 q 234 103 196 132 q 332 75 272 75 q 454 114 401 75 q 529 210 507 153 l 529 365 z "},"ä":{"ha":761,"x_min":69,"x_max":653,"o":"m 250 842 q 191 865 214 842 q 168 925 168 889 q 191 985 168 961 q 250 1008 214 1008 q 311 985 288 1008 q 335 925 335 961 q 311 865 335 889 q 250 842 288 842 m 507 842 q 447 865 471 842 q 424 925 424 889 q 447 985 424 961 q 507 1008 471 1008 q 568 985 544 1008 q 592 925 592 961 q 568 865 592 889 q 507 842 544 842 m 524 486 q 353 604 524 604 q 126 551 235 604 l 115 676 q 365 735 222 735 q 653 474 653 735 l 653 0 l 529 0 l 529 113 q 288 -15 436 -15 q 130 35 190 -15 q 69 174 69 85 q 136 324 69 275 q 350 397 203 374 q 499 438 451 414 q 524 486 524 449 m 529 365 q 363 315 478 335 q 235 272 274 300 q 196 185 196 243 q 234 103 196 132 q 332 75 272 75 q 454 114 401 75 q 529 210 507 153 l 529 365 z "},"å":{"ha":761,"x_min":69,"x_max":653,"o":"m 263 842 q 239 867 263 842 q 214 960 214 892 q 264 1078 214 1028 q 382 1128 314 1128 q 499 1078 450 1128 q 549 960 549 1029 q 499 842 549 892 q 382 793 450 793 q 263 842 313 793 m 382 869 q 444 894 421 869 q 467 957 467 919 q 443 1019 467 994 q 382 1044 419 1044 q 321 1019 346 1044 q 296 957 296 994 q 320 894 296 919 q 382 869 344 869 m 524 486 q 353 604 524 604 q 126 551 235 604 l 115 676 q 365 735 222 735 q 653 474 653 735 l 653 0 l 529 0 l 529 113 q 288 -15 436 -15 q 130 35 190 -15 q 69 174 69 85 q 136 324 69 275 q 350 397 203 374 q 499 438 451 414 q 524 486 524 449 m 529 365 q 363 315 478 335 q 235 272 274 300 q 196 185 196 243 q 234 103 196 132 q 332 75 272 75 q 454 114 401 75 q 529 210 507 153 l 529 365 z "},"æ":{"ha":1222,"x_min":69,"x_max":1165,"o":"m 901 -15 q 590 124 690 -15 q 293 -15 478 -15 q 132 35 194 -15 q 69 174 69 85 q 136 324 69 275 q 350 397 203 374 q 499 438 451 414 q 521 463 519 447 q 518 496 524 472 q 383 603 506 592 q 342 604 369 604 q 126 551 231 603 l 115 676 q 354 735 218 733 q 396 733 382 735 q 607 621 550 724 q 824 733 689 725 q 857 735 835 735 q 1083 630 1004 731 q 1165 397 1161 529 l 1165 368 q 1161 322 1161 325 l 639 322 q 723 153 650 217 q 918 90 796 90 q 1106 126 1022 90 l 1117 25 q 901 -15 1022 -15 m 846 614 q 703 560 761 614 q 635 407 646 507 l 1050 407 q 988 555 1043 496 q 846 614 932 614 m 332 75 q 460 106 403 75 q 550 186 518 138 q 518 332 522 253 l 518 358 q 363 315 463 333 q 235 272 274 300 q 196 185 196 243 q 197 168 196 174 q 240 99 203 122 q 332 75 278 75 z "},"ç":{"ha":699,"x_min":61,"x_max":638,"o":"m 376 -332 q 271 -315 310 -332 l 281 -235 q 360 -249 319 -249 q 444 -190 444 -249 q 419 -144 444 -160 q 331 -122 393 -128 l 360 -8 q 142 115 222 15 q 61 364 61 214 q 162 632 61 529 q 435 735 263 735 q 633 692 544 735 l 622 567 q 446 604 550 604 q 259 535 329 604 q 189 358 189 467 q 261 169 189 240 q 451 99 333 99 q 628 138 547 99 l 638 28 q 444 -15 554 -15 l 419 -15 l 415 -75 q 549 -199 549 -89 q 504 -296 549 -260 q 376 -332 460 -332 z "},"è":{"ha":776,"x_min":61,"x_max":721,"o":"m 351 793 l 147 1050 l 314 1050 l 431 793 l 351 793 m 671 24 q 457 -15 582 -15 q 167 86 272 -15 q 61 364 61 188 q 154 630 61 525 q 401 735 247 735 q 544 704 481 735 q 644 622 607 674 q 701 510 682 571 q 721 386 721 450 q 717 322 721 344 l 193 322 q 278 153 204 215 q 474 90 351 90 q 660 125 581 90 l 671 24 m 400 614 q 259 560 317 614 q 190 407 201 507 l 604 407 q 542 555 597 496 q 400 614 488 614 z "},"é":{"ha":776,"x_min":61,"x_max":721,"o":"m 429 793 l 349 793 l 465 1050 l 632 1050 l 429 793 m 671 24 q 457 -15 582 -15 q 167 86 272 -15 q 61 364 61 188 q 154 630 61 525 q 401 735 247 735 q 544 704 481 735 q 644 622 607 674 q 701 510 682 571 q 721 386 721 450 q 717 322 721 344 l 193 322 q 278 153 204 215 q 474 90 351 90 q 660 125 581 90 l 671 24 m 400 614 q 259 560 317 614 q 190 407 201 507 l 604 407 q 542 555 597 496 q 400 614 488 614 z "},"ê":{"ha":776,"x_min":61,"x_max":721,"o":"m 528 793 l 389 958 l 250 793 l 175 793 l 315 1050 l 463 1050 l 603 793 l 528 793 m 671 24 q 457 -15 582 -15 q 167 86 272 -15 q 61 364 61 188 q 154 630 61 525 q 401 735 247 735 q 544 704 481 735 q 644 622 607 674 q 701 510 682 571 q 721 386 721 450 q 717 322 721 344 l 193 322 q 278 153 204 215 q 474 90 351 90 q 660 125 581 90 l 671 24 m 400 614 q 259 560 317 614 q 190 407 201 507 l 604 407 q 542 555 597 496 q 400 614 488 614 z "},"ë":{"ha":776,"x_min":61,"x_max":721,"o":"m 258 842 q 199 865 222 842 q 176 925 176 889 q 199 985 176 961 q 258 1008 222 1008 q 319 985 296 1008 q 343 925 343 961 q 319 865 343 889 q 258 842 296 842 m 515 842 q 456 865 479 842 q 432 925 432 889 q 456 985 432 961 q 515 1008 479 1008 q 576 985 553 1008 q 600 925 600 961 q 576 865 600 889 q 515 842 553 842 m 671 24 q 457 -15 582 -15 q 167 86 272 -15 q 61 364 61 188 q 154 630 61 525 q 401 735 247 735 q 544 704 481 735 q 644 622 607 674 q 701 510 682 571 q 721 386 721 450 q 717 322 721 344 l 193 322 q 278 153 204 215 q 474 90 351 90 q 660 125 581 90 l 671 24 m 400 614 q 259 560 317 614 q 190 407 201 507 l 604 407 q 542 555 597 496 q 400 614 488 614 z "},"ì":{"ha":353,"x_min":-67,"x_max":238,"o":"m 138 793 l -67 1050 l 100 1050 l 217 793 l 138 793 m 115 0 l 115 719 l 238 719 l 238 0 l 115 0 z "},"í":{"ha":353,"x_min":115,"x_max":419,"o":"m 217 793 l 136 793 l 253 1050 l 419 1050 l 217 793 m 115 0 l 115 719 l 238 719 l 238 0 l 115 0 z "},"î":{"ha":353,"x_min":-37,"x_max":390,"o":"m 315 793 l 176 958 l 38 793 l -37 793 l 103 1050 l 250 1050 l 390 793 l 315 793 m 115 0 l 115 719 l 238 719 l 238 0 l 115 0 z "},"ï":{"ha":353,"x_min":-36,"x_max":388,"o":"m 46 842 q -13 865 10 842 q -36 925 -36 889 q -13 985 -36 961 q 46 1008 10 1008 q 107 985 83 1008 q 131 925 131 961 q 107 865 131 889 q 46 842 83 842 m 303 842 q 243 865 267 842 q 219 925 219 889 q 243 985 219 961 q 303 1008 267 1008 q 364 985 340 1008 q 388 925 388 961 q 364 865 388 889 q 303 842 340 842 m 115 0 l 115 719 l 238 719 l 238 0 l 115 0 z "},"ð":{"ha":815,"x_min":67,"x_max":749,"o":"m 404 -15 q 160 82 254 -15 q 67 328 67 179 q 162 573 67 478 q 404 668 257 668 q 607 574 524 668 q 429 865 556 757 l 332 753 l 281 796 l 375 904 q 215 982 301 956 l 247 1071 q 440 986 357 1042 l 526 1085 l 578 1043 l 497 950 q 685 710 622 853 q 749 413 749 567 q 657 97 749 208 q 404 -15 565 -15 m 251 158 q 280 126 251 158 q 407 94 310 94 q 563 158 504 94 q 622 326 622 222 q 560 486 622 424 q 407 549 499 549 q 251 487 311 549 q 192 326 192 425 q 251 158 192 222 z "},"ñ":{"ha":858,"x_min":115,"x_max":750,"o":"m 233 829 l 219 933 q 349 993 286 993 q 443 970 386 993 q 528 947 500 947 q 625 1003 583 947 l 639 900 q 529 840 592 840 q 433 863 489 840 q 347 886 376 886 q 233 829 290 886 m 115 0 l 115 719 l 236 719 l 236 599 l 240 599 q 472 735 307 735 q 682 652 614 735 q 750 429 750 569 l 750 0 l 629 0 l 629 381 q 583 542 629 482 q 438 603 536 603 q 288 541 339 603 q 238 371 238 479 l 238 0 l 115 0 z "},"ò":{"ha":850,"x_min":61,"x_max":788,"o":"m 386 793 l 182 1050 l 349 1050 l 465 793 l 386 793 m 61 360 q 162 631 61 526 q 424 735 263 735 q 687 631 586 735 q 788 361 788 526 q 686 92 788 199 q 424 -15 585 -15 q 163 92 264 -15 q 61 360 61 199 m 424 99 q 597 169 532 99 q 661 356 661 240 q 592 534 661 464 q 424 604 524 604 q 254 535 319 604 q 189 356 189 465 q 253 169 189 240 q 424 99 318 99 z "},"ó":{"ha":850,"x_min":61,"x_max":788,"o":"m 465 793 l 385 793 l 501 1050 l 668 1050 l 465 793 m 61 360 q 162 631 61 526 q 424 735 263 735 q 687 631 586 735 q 788 361 788 526 q 686 92 788 199 q 424 -15 585 -15 q 163 92 264 -15 q 61 360 61 199 m 424 99 q 597 169 532 99 q 661 356 661 240 q 592 534 661 464 q 424 604 524 604 q 254 535 319 604 q 189 356 189 465 q 253 169 189 240 q 424 99 318 99 z "},"ô":{"ha":850,"x_min":61,"x_max":788,"o":"m 564 793 l 425 958 l 286 793 l 211 793 l 351 1050 l 499 1050 l 639 793 l 564 793 m 61 360 q 162 631 61 526 q 424 735 263 735 q 687 631 586 735 q 788 361 788 526 q 686 92 788 199 q 424 -15 585 -15 q 163 92 264 -15 q 61 360 61 199 m 424 99 q 597 169 532 99 q 661 356 661 240 q 592 534 661 464 q 424 604 524 604 q 254 535 319 604 q 189 356 189 465 q 253 169 189 240 q 424 99 318 99 z "},"õ":{"ha":850,"x_min":61,"x_max":788,"o":"m 229 829 l 215 933 q 344 993 282 993 q 439 970 382 993 q 524 947 496 947 q 621 1003 579 947 l 635 900 q 525 840 588 840 q 428 863 485 840 q 343 886 372 886 q 229 829 286 886 m 61 360 q 162 631 61 526 q 424 735 263 735 q 687 631 586 735 q 788 361 788 526 q 686 92 788 199 q 424 -15 585 -15 q 163 92 264 -15 q 61 360 61 199 m 424 99 q 597 169 532 99 q 661 356 661 240 q 592 534 661 464 q 424 604 524 604 q 254 535 319 604 q 189 356 189 465 q 253 169 189 240 q 424 99 318 99 z "},"ö":{"ha":850,"x_min":61,"x_max":788,"o":"m 294 842 q 235 865 258 842 q 213 925 213 889 q 235 985 213 961 q 294 1008 258 1008 q 356 985 332 1008 q 379 925 379 961 q 356 865 379 889 q 294 842 332 842 m 551 842 q 492 865 515 842 q 468 925 468 889 q 492 985 468 961 q 551 1008 515 1008 q 613 985 589 1008 q 636 925 636 961 q 613 865 636 889 q 551 842 589 842 m 61 360 q 162 631 61 526 q 424 735 263 735 q 687 631 586 735 q 788 361 788 526 q 686 92 788 199 q 424 -15 585 -15 q 163 92 264 -15 q 61 360 61 199 m 424 99 q 597 169 532 99 q 661 356 661 240 q 592 534 661 464 q 424 604 524 604 q 254 535 319 604 q 189 356 189 465 q 253 169 189 240 q 424 99 318 99 z "},"÷":{"ha":693,"x_min":46,"x_max":647,"o":"m 284 687 q 272 700 284 687 q 260 747 260 713 q 284 808 260 782 q 344 833 308 833 q 405 808 381 833 q 429 747 429 782 q 405 687 429 713 q 344 661 381 661 q 284 687 308 661 m 647 431 l 46 431 l 46 539 l 647 539 l 647 431 m 284 162 q 272 175 284 162 q 260 222 260 188 q 284 283 260 257 q 344 308 308 308 q 405 283 381 308 q 429 222 429 257 q 405 162 429 188 q 344 136 381 136 q 284 162 308 136 z "},"ø":{"ha":850,"x_min":49,"x_max":806,"o":"m 424 -15 q 203 56 299 -15 l 151 0 l 49 0 l 147 108 q 61 360 61 211 q 162 631 61 526 q 424 735 263 735 q 650 663 556 735 l 703 719 l 806 719 l 706 610 q 788 361 788 511 q 686 92 788 199 q 424 -15 585 -15 m 189 356 q 233 201 189 263 l 558 561 q 424 604 500 604 q 254 535 319 604 q 189 356 189 465 m 424 99 q 597 169 532 99 q 661 356 661 240 q 611 506 661 444 l 285 144 q 424 99 342 99 z "},"ù":{"ha":850,"x_min":108,"x_max":735,"o":"m 386 793 l 182 1050 l 349 1050 l 465 793 l 386 793 m 735 719 l 735 0 l 614 0 l 614 118 l 610 118 q 385 -15 546 -15 q 177 68 246 -15 q 108 290 108 151 l 108 719 l 231 719 l 231 318 q 276 158 231 217 q 417 99 321 99 q 562 163 511 99 q 613 331 613 226 l 613 719 l 735 719 z "},"ú":{"ha":850,"x_min":108,"x_max":735,"o":"m 465 793 l 385 793 l 501 1050 l 668 1050 l 465 793 m 735 719 l 735 0 l 614 0 l 614 118 l 610 118 q 385 -15 546 -15 q 177 68 246 -15 q 108 290 108 151 l 108 719 l 231 719 l 231 318 q 276 158 231 217 q 417 99 321 99 q 562 163 511 99 q 613 331 613 226 l 613 719 l 735 719 z "},"û":{"ha":850,"x_min":108,"x_max":735,"o":"m 564 793 l 425 958 l 286 793 l 211 793 l 351 1050 l 499 1050 l 639 793 l 564 793 m 735 719 l 735 0 l 614 0 l 614 118 l 610 118 q 385 -15 546 -15 q 177 68 246 -15 q 108 290 108 151 l 108 719 l 231 719 l 231 318 q 276 158 231 217 q 417 99 321 99 q 562 163 511 99 q 613 331 613 226 l 613 719 l 735 719 z "},"ü":{"ha":850,"x_min":108,"x_max":735,"o":"m 294 842 q 235 865 258 842 q 213 925 213 889 q 235 985 213 961 q 294 1008 258 1008 q 356 985 332 1008 q 379 925 379 961 q 356 865 379 889 q 294 842 332 842 m 551 842 q 492 865 515 842 q 468 925 468 889 q 492 985 468 961 q 551 1008 515 1008 q 613 985 589 1008 q 636 925 636 961 q 613 865 636 889 q 551 842 589 842 m 735 719 l 735 0 l 614 0 l 614 118 l 610 118 q 385 -15 546 -15 q 177 68 246 -15 q 108 290 108 151 l 108 719 l 231 719 l 231 318 q 276 158 231 217 q 417 99 321 99 q 562 163 511 99 q 613 331 613 226 l 613 719 l 735 719 z "},"ý":{"ha":756,"x_min":19,"x_max":735,"o":"m 418 793 l 338 793 l 454 1050 l 621 1050 l 418 793 m 190 -279 q 83 -264 125 -279 l 94 -160 q 168 -171 128 -171 q 248 -148 221 -171 q 299 -65 275 -125 l 321 -7 l 19 719 l 169 719 l 389 115 l 596 719 l 735 719 l 425 -62 q 387 -151 403 -119 q 344 -217 371 -183 q 281 -265 318 -250 q 190 -279 243 -279 z "},"þ":{"ha":913,"x_min":118,"x_max":851,"o":"m 118 -264 l 118 1056 l 239 1056 l 239 585 l 244 585 q 506 735 325 735 q 756 631 661 735 q 851 357 851 526 q 751 90 851 194 q 504 -15 651 -15 q 348 24 417 -15 q 243 133 279 64 l 238 133 l 238 -264 l 118 -264 m 486 99 q 656 169 588 99 q 724 349 724 239 q 656 532 724 460 q 486 604 588 604 q 311 532 381 604 q 242 349 242 460 q 312 169 242 240 q 486 99 382 99 z "},"ÿ":{"ha":756,"x_min":19,"x_max":735,"o":"m 247 842 q 188 865 211 842 q 165 925 165 889 q 188 985 165 961 q 247 1008 211 1008 q 308 985 285 1008 q 332 925 332 961 q 308 865 332 889 q 247 842 285 842 m 504 842 q 444 865 468 842 q 421 925 421 889 q 444 985 421 961 q 504 1008 468 1008 q 565 985 542 1008 q 589 925 589 961 q 565 865 589 889 q 504 842 542 842 m 190 -279 q 83 -264 125 -279 l 94 -160 q 168 -171 128 -171 q 248 -148 221 -171 q 299 -65 275 -125 l 321 -7 l 19 719 l 169 719 l 389 115 l 596 719 l 735 719 l 425 -62 q 387 -151 403 -119 q 344 -217 371 -183 q 281 -265 318 -250 q 190 -279 243 -279 z "},"Ā":{"ha":965,"x_min":26,"x_max":939,"o":"m 282 1143 l 282 1240 l 682 1240 l 682 1143 l 282 1143 m 801 0 l 694 275 l 261 275 l 156 0 l 26 0 l 408 1000 l 557 1000 l 939 0 l 801 0 m 654 389 l 478 849 l 301 389 l 654 389 z "},"ā":{"ha":761,"x_min":69,"x_max":653,"o":"m 181 863 l 181 960 l 581 960 l 581 863 l 181 863 m 524 486 q 353 604 524 604 q 126 551 235 604 l 115 676 q 365 735 222 735 q 653 474 653 735 l 653 0 l 529 0 l 529 113 q 288 -15 436 -15 q 130 35 190 -15 q 69 174 69 85 q 136 324 69 275 q 350 397 203 374 q 499 438 451 414 q 524 486 524 449 m 529 365 q 363 315 478 335 q 235 272 274 300 q 196 185 196 243 q 234 103 196 132 q 332 75 272 75 q 454 114 401 75 q 529 210 507 153 l 529 365 z "},"Ă":{"ha":965,"x_min":26,"x_max":939,"o":"m 265 1294 l 368 1294 q 400 1210 368 1239 q 483 1181 432 1181 q 565 1210 533 1181 q 596 1294 596 1239 l 697 1294 q 641 1144 697 1200 q 483 1088 585 1088 q 324 1146 382 1088 q 265 1294 265 1204 m 801 0 l 694 275 l 261 275 l 156 0 l 26 0 l 408 1000 l 557 1000 l 939 0 l 801 0 m 654 389 l 478 849 l 301 389 l 654 389 z "},"ă":{"ha":761,"x_min":69,"x_max":653,"o":"m 164 1014 l 267 1014 q 299 929 267 958 q 382 900 331 900 q 463 929 432 900 q 494 1014 494 958 l 596 1014 q 540 863 596 919 q 382 807 483 807 q 222 865 281 807 q 164 1014 164 924 m 524 486 q 353 604 524 604 q 126 551 235 604 l 115 676 q 365 735 222 735 q 653 474 653 735 l 653 0 l 529 0 l 529 113 q 288 -15 436 -15 q 130 35 190 -15 q 69 174 69 85 q 136 324 69 275 q 350 397 203 374 q 499 438 451 414 q 524 486 524 449 m 529 365 q 363 315 478 335 q 235 272 274 300 q 196 185 196 243 q 234 103 196 132 q 332 75 272 75 q 454 114 401 75 q 529 210 507 153 l 529 365 z "},"Ą":{"ha":965,"x_min":26,"x_max":939,"o":"m 801 0 l 694 275 l 261 275 l 156 0 l 26 0 l 408 1000 l 557 1000 l 939 0 q 808 -74 860 -25 q 756 -171 756 -122 q 824 -235 756 -235 q 910 -212 872 -235 l 925 -300 q 800 -332 874 -332 q 688 -294 725 -332 q 650 -197 650 -257 q 801 0 650 -83 m 654 389 l 478 849 l 301 389 l 654 389 z "},"ą":{"ha":761,"x_min":69,"x_max":657,"o":"m 529 0 l 529 113 q 288 -15 436 -15 q 130 35 190 -15 q 69 174 69 85 q 136 324 69 275 q 350 397 203 374 q 499 438 451 414 q 524 486 524 449 q 353 604 524 604 q 126 551 235 604 l 115 676 q 365 735 222 735 q 653 474 653 735 l 653 0 q 533 -75 578 -29 q 488 -168 488 -121 q 557 -235 488 -235 q 640 -212 606 -235 l 657 -300 q 532 -332 604 -332 q 419 -294 457 -332 q 382 -197 382 -257 q 529 0 382 -83 m 529 365 q 363 315 478 335 q 235 272 274 300 q 196 185 196 243 q 234 103 196 132 q 332 75 272 75 q 454 114 401 75 q 529 210 507 153 l 529 365 z "},"Ć":{"ha":878,"x_min":74,"x_max":813,"o":"m 544 1074 l 464 1074 l 581 1331 l 747 1331 l 544 1074 m 801 149 l 813 31 q 583 -15 714 -15 q 214 124 354 -15 q 74 500 74 263 q 213 872 74 729 q 571 1015 353 1015 q 807 968 718 1015 l 796 833 q 579 876 707 876 q 306 769 410 876 q 203 492 203 663 q 309 211 203 317 q 593 106 415 106 q 801 149 703 106 z "},"ć":{"ha":699,"x_min":61,"x_max":638,"o":"m 421 793 l 340 793 l 457 1050 l 624 1050 l 421 793 m 628 138 l 638 28 q 444 -15 554 -15 q 167 88 272 -15 q 61 364 61 190 q 162 632 61 529 q 435 735 263 735 q 633 692 544 735 l 622 567 q 446 604 550 604 q 259 535 329 604 q 189 358 189 467 q 261 169 189 240 q 451 99 333 99 q 628 138 547 99 z "},"Ĉ":{"ha":878,"x_min":74,"x_max":813,"o":"m 647 1074 l 508 1239 l 369 1074 l 294 1074 l 435 1331 l 582 1331 l 722 1074 l 647 1074 m 801 149 l 813 31 q 583 -15 714 -15 q 214 124 354 -15 q 74 500 74 263 q 213 872 74 729 q 571 1015 353 1015 q 807 968 718 1015 l 796 833 q 579 876 707 876 q 306 769 410 876 q 203 492 203 663 q 309 211 203 317 q 593 106 415 106 q 801 149 703 106 z "},"ĉ":{"ha":699,"x_min":61,"x_max":638,"o":"m 515 793 l 376 958 l 238 793 l 163 793 l 303 1050 l 450 1050 l 590 793 l 515 793 m 628 138 l 638 28 q 444 -15 554 -15 q 167 88 272 -15 q 61 364 61 190 q 162 632 61 529 q 435 735 263 735 q 633 692 544 735 l 622 567 q 446 604 550 604 q 259 535 329 604 q 189 358 189 467 q 261 169 189 240 q 451 99 333 99 q 628 138 547 99 z "},"Ċ":{"ha":878,"x_min":74,"x_max":813,"o":"m 576 1146 q 564 1134 576 1146 q 514 1122 551 1122 q 452 1146 476 1122 q 428 1207 428 1169 q 451 1269 428 1246 q 514 1293 475 1293 q 577 1269 553 1293 q 601 1207 601 1246 q 576 1146 601 1169 m 801 149 l 813 31 q 583 -15 714 -15 q 214 124 354 -15 q 74 500 74 263 q 213 872 74 729 q 571 1015 353 1015 q 807 968 718 1015 l 796 833 q 579 876 707 876 q 306 769 410 876 q 203 492 203 663 q 309 211 203 317 q 593 106 415 106 q 801 149 703 106 z "},"ċ":{"ha":699,"x_min":61,"x_max":638,"o":"m 447 865 q 435 853 447 865 q 385 842 422 842 q 323 865 347 842 q 299 926 299 889 q 322 989 299 965 q 385 1013 346 1013 q 448 989 424 1013 q 472 926 472 965 q 447 865 472 889 m 628 138 l 638 28 q 444 -15 554 -15 q 167 88 272 -15 q 61 364 61 190 q 162 632 61 529 q 435 735 263 735 q 633 692 544 735 l 622 567 q 446 604 550 604 q 259 535 329 604 q 189 358 189 467 q 261 169 189 240 q 451 99 333 99 q 628 138 547 99 z "},"Č":{"ha":878,"x_min":74,"x_max":813,"o":"m 597 1074 l 450 1074 l 310 1331 l 385 1331 l 524 1165 l 663 1331 l 738 1331 l 597 1074 m 801 149 l 813 31 q 583 -15 714 -15 q 214 124 354 -15 q 74 500 74 263 q 213 872 74 729 q 571 1015 353 1015 q 807 968 718 1015 l 796 833 q 579 876 707 876 q 306 769 410 876 q 203 492 203 663 q 309 211 203 317 q 593 106 415 106 q 801 149 703 106 z "},"č":{"ha":699,"x_min":61,"x_max":638,"o":"m 451 793 l 304 793 l 164 1050 l 239 1050 l 378 885 l 517 1050 l 592 1050 l 451 793 m 628 138 l 638 28 q 444 -15 554 -15 q 167 88 272 -15 q 61 364 61 190 q 162 632 61 529 q 435 735 263 735 q 633 692 544 735 l 622 567 q 446 604 550 604 q 259 535 329 604 q 189 358 189 467 q 261 169 189 240 q 451 99 333 99 q 628 138 547 99 z "},"Ď":{"ha":1004,"x_min":132,"x_max":936,"o":"m 576 1074 l 429 1074 l 289 1331 l 364 1331 l 503 1165 l 642 1331 l 717 1331 l 576 1074 m 132 0 l 132 1000 l 385 1000 q 792 862 649 1000 q 936 497 936 724 q 784 135 936 269 q 390 0 632 0 l 132 0 m 386 868 l 258 868 l 258 118 l 388 118 q 697 221 586 118 q 807 494 807 324 q 692 765 807 661 q 386 868 578 868 z "},"ď":{"ha":1006,"x_min":61,"x_max":1025,"o":"m 796 1056 l 796 0 l 675 0 l 675 136 l 671 136 q 407 -15 589 -15 q 158 89 254 -15 q 61 361 61 193 q 160 630 61 525 q 408 735 258 735 q 565 696 497 735 q 669 586 633 657 l 674 586 l 674 1056 l 796 1056 m 888 772 l 907 1056 l 1025 1056 l 965 772 l 888 772 m 426 604 q 257 534 325 604 q 189 356 189 464 q 256 169 189 240 q 426 99 324 99 q 601 171 532 99 q 671 356 671 243 q 601 535 671 465 q 426 604 532 604 z "},"Đ":{"ha":1014,"x_min":17,"x_max":944,"o":"m 399 0 l 140 0 l 140 443 l 17 443 l 17 550 l 140 550 l 140 1000 l 393 1000 q 801 862 658 1000 q 944 497 944 724 q 792 135 944 269 q 399 0 640 0 m 267 118 l 397 118 q 706 221 596 118 q 815 494 815 324 q 701 765 815 661 q 394 868 586 868 l 267 868 l 267 550 l 515 550 l 515 443 l 267 443 l 267 118 z "},"đ":{"ha":915,"x_min":61,"x_max":913,"o":"m 671 136 q 407 -15 589 -15 q 158 89 254 -15 q 61 361 61 193 q 160 630 61 525 q 408 735 258 735 q 565 696 497 735 q 669 586 633 657 l 674 586 l 674 842 l 404 842 l 404 922 l 674 922 l 674 1056 l 796 1056 l 796 922 l 913 922 l 913 842 l 796 842 l 796 0 l 675 0 l 675 136 l 671 136 m 426 604 q 257 534 325 604 q 189 356 189 464 q 256 169 189 240 q 426 99 324 99 q 601 171 532 99 q 671 356 671 243 q 601 535 671 465 q 426 604 532 604 z "},"Ē":{"ha":793,"x_min":132,"x_max":714,"o":"m 221 1143 l 221 1240 l 621 1240 l 621 1143 l 221 1143 m 132 0 l 132 1000 l 714 1000 l 714 868 l 258 868 l 258 569 l 676 569 l 676 451 l 258 451 l 258 118 l 714 118 l 714 0 l 132 0 z "},"ē":{"ha":776,"x_min":61,"x_max":721,"o":"m 189 863 l 189 960 l 589 960 l 589 863 l 189 863 m 671 24 q 457 -15 582 -15 q 167 86 272 -15 q 61 364 61 188 q 154 630 61 525 q 401 735 247 735 q 544 704 481 735 q 644 622 607 674 q 701 510 682 571 q 721 386 721 450 q 717 322 721 344 l 193 322 q 278 153 204 215 q 474 90 351 90 q 660 125 581 90 l 671 24 m 400 614 q 259 560 317 614 q 190 407 201 507 l 604 407 q 542 555 597 496 q 400 614 488 614 z "},"Ĕ":{"ha":793,"x_min":132,"x_max":714,"o":"m 207 1294 l 310 1294 q 342 1210 310 1239 q 425 1181 374 1181 q 506 1210 475 1181 q 538 1294 538 1239 l 639 1294 q 583 1144 639 1200 q 425 1088 526 1088 q 265 1146 324 1088 q 207 1294 207 1204 m 132 0 l 132 1000 l 714 1000 l 714 868 l 258 868 l 258 569 l 676 569 l 676 451 l 258 451 l 258 118 l 714 118 l 714 0 l 132 0 z "},"ĕ":{"ha":776,"x_min":61,"x_max":721,"o":"m 172 1014 l 275 1014 q 307 929 275 958 q 390 900 339 900 q 472 929 440 900 q 503 1014 503 958 l 604 1014 q 548 863 604 919 q 390 807 492 807 q 231 865 289 807 q 172 1014 172 924 m 671 24 q 457 -15 582 -15 q 167 86 272 -15 q 61 364 61 188 q 154 630 61 525 q 401 735 247 735 q 544 704 481 735 q 644 622 607 674 q 701 510 682 571 q 721 386 721 450 q 717 322 721 344 l 193 322 q 278 153 204 215 q 474 90 351 90 q 660 125 581 90 l 671 24 m 400 614 q 259 560 317 614 q 190 407 201 507 l 604 407 q 542 555 597 496 q 400 614 488 614 z "},"Ė":{"ha":793,"x_min":132,"x_max":714,"o":"m 489 1146 q 476 1134 489 1146 q 426 1122 464 1122 q 365 1146 389 1122 q 340 1207 340 1169 q 364 1269 340 1246 q 426 1293 388 1293 q 490 1269 465 1293 q 514 1207 514 1246 q 489 1146 514 1169 m 132 0 l 132 1000 l 714 1000 l 714 868 l 258 868 l 258 569 l 676 569 l 676 451 l 258 451 l 258 118 l 714 118 l 714 0 l 132 0 z "},"ė":{"ha":776,"x_min":61,"x_max":721,"o":"m 451 865 q 439 853 451 865 q 389 842 426 842 q 327 865 351 842 q 303 926 303 889 q 326 989 303 965 q 389 1013 350 1013 q 452 989 428 1013 q 476 926 476 965 q 451 865 476 889 m 671 24 q 457 -15 582 -15 q 167 86 272 -15 q 61 364 61 188 q 154 630 61 525 q 401 735 247 735 q 544 704 481 735 q 644 622 607 674 q 701 510 682 571 q 721 386 721 450 q 717 322 721 344 l 193 322 q 278 153 204 215 q 474 90 351 90 q 660 125 581 90 l 671 24 m 400 614 q 259 560 317 614 q 190 407 201 507 l 604 407 q 542 555 597 496 q 400 614 488 614 z "},"Ę":{"ha":793,"x_min":132,"x_max":725,"o":"m 600 0 l 132 0 l 132 1000 l 714 1000 l 714 868 l 258 868 l 258 569 l 676 569 l 676 451 l 258 451 l 258 118 l 714 118 l 714 0 q 600 -78 644 -33 q 556 -171 556 -124 q 624 -235 556 -235 q 710 -212 675 -235 l 725 -300 q 600 -332 674 -332 q 488 -294 525 -332 q 450 -197 450 -257 q 600 0 450 -85 z "},"ę":{"ha":776,"x_min":61,"x_max":719,"o":"m 658 -300 q 533 -332 606 -332 q 421 -294 458 -332 q 383 -197 383 -257 q 510 -10 383 -94 q 433 -14 460 -15 q 160 92 260 -10 q 61 364 61 193 q 154 630 61 525 q 401 735 247 735 q 578 683 504 735 q 684 556 651 631 q 719 397 717 482 l 719 368 q 717 322 719 347 l 193 322 q 270 156 203 219 q 449 92 338 93 q 517 93 471 90 q 660 125 593 97 l 671 24 q 489 -171 489 -74 q 533 -232 489 -224 q 565 -235 543 -235 q 642 -212 611 -233 l 658 -300 m 400 614 q 259 560 317 614 q 190 407 201 507 l 604 407 q 542 555 597 496 q 400 614 488 614 z "},"Ě":{"ha":793,"x_min":132,"x_max":714,"o":"m 499 1074 l 351 1074 l 211 1331 l 286 1331 l 425 1165 l 564 1331 l 639 1331 l 499 1074 m 132 0 l 132 1000 l 714 1000 l 714 868 l 258 868 l 258 569 l 676 569 l 676 451 l 258 451 l 258 118 l 714 118 l 714 0 l 132 0 z "},"ě":{"ha":776,"x_min":61,"x_max":721,"o":"m 463 793 l 315 793 l 175 1050 l 250 1050 l 389 885 l 528 1050 l 603 1050 l 463 793 m 671 24 q 457 -15 582 -15 q 167 86 272 -15 q 61 364 61 188 q 154 630 61 525 q 401 735 247 735 q 544 704 481 735 q 644 622 607 674 q 701 510 682 571 q 721 386 721 450 q 717 322 721 344 l 193 322 q 278 153 204 215 q 474 90 351 90 q 660 125 581 90 l 671 24 m 400 614 q 259 560 317 614 q 190 407 201 507 l 604 407 q 542 555 597 496 q 400 614 488 614 z "},"Ĝ":{"ha":963,"x_min":74,"x_max":871,"o":"m 675 1074 l 536 1239 l 397 1074 l 322 1074 l 463 1331 l 610 1331 l 750 1074 l 675 1074 m 871 22 q 615 -15 785 -15 l 599 -15 q 217 129 361 -10 q 74 500 74 268 q 224 873 74 731 q 610 1015 374 1015 q 864 965 764 1015 l 856 831 q 615 876 754 876 q 316 769 429 876 q 203 492 203 663 q 308 216 203 322 q 590 104 414 110 q 749 115 671 101 l 749 438 l 871 438 l 871 22 z "},"ĝ":{"ha":894,"x_min":61,"x_max":779,"o":"m 583 793 l 444 958 l 306 793 l 231 793 l 371 1050 l 518 1050 l 658 793 l 583 793 m 658 64 l 658 150 l 654 150 q 399 -3 571 -3 q 155 98 249 -3 q 61 361 61 199 q 157 630 61 525 q 400 735 253 735 q 654 586 581 735 l 658 586 l 658 719 l 779 719 l 779 72 q 693 -192 779 -101 q 446 -282 607 -282 q 264 -257 331 -282 l 275 -154 q 425 -174 332 -174 q 658 64 658 -174 m 418 604 q 254 535 319 604 q 189 357 189 465 q 253 173 189 244 q 418 101 318 101 q 588 173 521 101 q 656 357 656 244 q 588 535 656 465 q 418 604 521 604 z "},"Ğ":{"ha":963,"x_min":74,"x_max":871,"o":"m 322 1294 l 425 1294 q 457 1210 425 1239 q 540 1181 489 1181 q 622 1210 590 1181 q 653 1294 653 1239 l 754 1294 q 698 1144 754 1200 q 540 1088 642 1088 q 381 1146 439 1088 q 322 1294 322 1204 m 871 22 q 615 -15 785 -15 l 599 -15 q 217 129 361 -10 q 74 500 74 268 q 224 873 74 731 q 610 1015 374 1015 q 864 965 764 1015 l 856 831 q 615 876 754 876 q 316 769 429 876 q 203 492 203 663 q 308 216 203 322 q 590 104 414 110 q 749 115 671 101 l 749 438 l 871 438 l 871 22 z "},"ğ":{"ha":894,"x_min":61,"x_max":779,"o":"m 231 1014 l 333 1014 q 365 929 333 958 q 449 900 397 900 q 530 929 499 900 q 561 1014 561 958 l 663 1014 q 606 863 663 919 q 449 807 550 807 q 289 865 347 807 q 231 1014 231 924 m 658 64 l 658 150 l 654 150 q 399 -3 571 -3 q 155 98 249 -3 q 61 361 61 199 q 157 630 61 525 q 400 735 253 735 q 654 586 581 735 l 658 586 l 658 719 l 779 719 l 779 72 q 693 -192 779 -101 q 446 -282 607 -282 q 264 -257 331 -282 l 275 -154 q 425 -174 332 -174 q 658 64 658 -174 m 418 604 q 254 535 319 604 q 189 357 189 465 q 253 173 189 244 q 418 101 318 101 q 588 173 521 101 q 656 357 656 244 q 588 535 656 465 q 418 604 521 604 z "},"Ġ":{"ha":963,"x_min":74,"x_max":871,"o":"m 614 1146 q 601 1134 614 1146 q 551 1122 589 1122 q 490 1146 514 1122 q 465 1207 465 1169 q 489 1269 465 1246 q 551 1293 513 1293 q 615 1269 590 1293 q 639 1207 639 1246 q 614 1146 639 1169 m 871 22 q 615 -15 785 -15 l 599 -15 q 217 129 361 -10 q 74 500 74 268 q 224 873 74 731 q 610 1015 374 1015 q 864 965 764 1015 l 856 831 q 615 876 754 876 q 316 769 429 876 q 203 492 203 663 q 308 216 203 322 q 590 104 414 110 q 749 115 671 101 l 749 438 l 871 438 l 871 22 z "},"ġ":{"ha":894,"x_min":61,"x_max":779,"o":"m 514 865 q 501 853 514 865 q 451 842 489 842 q 390 865 414 842 q 365 926 365 889 q 389 989 365 965 q 451 1013 413 1013 q 515 989 490 1013 q 539 926 539 965 q 514 865 539 889 m 658 64 l 658 150 l 654 150 q 399 -3 571 -3 q 155 98 249 -3 q 61 361 61 199 q 157 630 61 525 q 400 735 253 735 q 654 586 581 735 l 658 586 l 658 719 l 779 719 l 779 72 q 693 -192 779 -101 q 446 -282 607 -282 q 264 -257 331 -282 l 275 -154 q 425 -174 332 -174 q 658 64 658 -174 m 418 604 q 254 535 319 604 q 189 357 189 465 q 253 173 189 244 q 418 101 318 101 q 588 173 521 101 q 656 357 656 244 q 588 535 656 465 q 418 604 521 604 z "},"Ģ":{"ha":963,"x_min":74,"x_max":871,"o":"m 871 22 q 615 -15 785 -15 l 599 -15 q 217 129 361 -10 q 74 500 74 268 q 224 873 74 731 q 610 1015 374 1015 q 864 965 764 1015 l 856 831 q 615 876 754 876 q 316 769 429 876 q 203 492 203 663 q 308 216 203 322 q 590 104 414 110 q 749 115 671 101 l 749 438 l 871 438 l 871 22 m 456 -328 l 506 -72 l 649 -72 l 538 -328 l 456 -328 z "},"ģ":{"ha":894,"x_min":61,"x_max":779,"o":"m 560 1050 l 513 793 l 371 793 l 479 1050 l 560 1050 m 658 64 l 658 150 l 654 150 q 399 -3 571 -3 q 155 98 249 -3 q 61 361 61 199 q 157 630 61 525 q 400 735 253 735 q 654 586 581 735 l 658 586 l 658 719 l 779 719 l 779 72 q 693 -192 779 -101 q 446 -282 607 -282 q 264 -257 331 -282 l 275 -154 q 425 -174 332 -174 q 658 64 658 -174 m 418 604 q 254 535 319 604 q 189 357 189 465 q 253 173 189 244 q 418 101 318 101 q 588 173 521 101 q 656 357 656 244 q 588 535 656 465 q 418 604 521 604 z "},"Ĥ":{"ha":1061,"x_min":132,"x_max":929,"o":"m 669 1074 l 531 1239 l 392 1074 l 317 1074 l 457 1331 l 604 1331 l 744 1074 l 669 1074 m 132 0 l 132 1000 l 258 1000 l 258 569 l 803 569 l 803 1000 l 929 1000 l 929 0 l 803 0 l 803 451 l 258 451 l 258 0 l 132 0 z "},"ĥ":{"ha":858,"x_min":115,"x_max":750,"o":"m 468 1106 l 329 1271 l 190 1106 l 115 1106 l 256 1363 l 403 1363 l 543 1106 l 468 1106 m 629 385 q 583 547 629 486 q 438 607 536 607 q 288 545 339 607 q 238 375 238 483 l 238 0 l 115 0 l 115 1056 l 236 1056 l 236 603 l 240 603 q 471 735 306 735 q 681 651 613 735 q 750 429 750 568 l 750 0 l 629 0 l 629 385 z "},"Ħ":{"ha":1074,"x_min":26,"x_max":1047,"o":"m 264 451 l 264 0 l 139 0 l 139 728 l 26 728 l 26 824 l 139 824 l 139 1000 l 264 1000 l 264 824 l 810 824 l 810 1000 l 936 1000 l 936 824 l 1047 824 l 1047 728 l 936 728 l 936 0 l 810 0 l 810 451 l 264 451 m 264 565 l 810 565 l 810 728 l 264 728 l 264 565 z "},"ħ":{"ha":858,"x_min":3,"x_max":750,"o":"m 238 375 l 238 0 l 115 0 l 115 839 l 3 839 l 3 919 l 115 919 l 115 1056 l 236 1056 l 236 919 l 511 919 l 511 839 l 236 839 l 236 603 l 240 603 q 471 735 306 735 q 681 651 613 735 q 750 429 750 568 l 750 0 l 629 0 l 629 385 q 583 547 629 486 q 438 607 536 607 q 288 545 339 607 q 238 375 238 483 z "},"Ĩ":{"ha":390,"x_min":-15,"x_max":404,"o":"m -1 1110 l -15 1214 q 114 1274 51 1274 q 208 1251 151 1274 q 293 1228 265 1228 q 390 1283 349 1228 l 404 1181 q 294 1121 357 1121 q 198 1144 254 1121 q 113 1167 142 1167 q -1 1110 56 1167 m 132 0 l 132 1000 l 258 1000 l 258 0 l 132 0 z "},"ĩ":{"ha":353,"x_min":-33,"x_max":386,"o":"m -19 829 l -33 933 q 96 993 33 993 q 190 970 133 993 q 275 947 247 947 q 372 1003 331 947 l 386 900 q 276 840 339 840 q 180 863 236 840 q 94 886 124 886 q -19 829 38 886 m 115 0 l 115 719 l 238 719 l 238 0 l 115 0 z "},"Ī":{"ha":390,"x_min":-6,"x_max":394,"o":"m -6 1143 l -6 1240 l 394 1240 l 394 1143 l -6 1143 m 132 0 l 132 1000 l 258 1000 l 258 0 l 132 0 z "},"ī":{"ha":353,"x_min":-24,"x_max":376,"o":"m -24 863 l -24 960 l 376 960 l 376 863 l -24 863 m 115 0 l 115 719 l 238 719 l 238 0 l 115 0 z "},"Ĭ":{"ha":390,"x_min":-22,"x_max":410,"o":"m -22 1294 l 81 1294 q 113 1210 81 1239 q 196 1181 144 1181 q 277 1210 246 1181 q 308 1294 308 1239 l 410 1294 q 353 1144 410 1200 q 196 1088 297 1088 q 36 1146 94 1088 q -22 1294 -22 1204 m 132 0 l 132 1000 l 258 1000 l 258 0 l 132 0 z "},"ĭ":{"ha":353,"x_min":-40,"x_max":392,"o":"m -40 1014 l 63 1014 q 94 929 63 958 q 178 900 126 900 q 259 929 228 900 q 290 1014 290 958 l 392 1014 q 335 863 392 919 q 178 807 279 807 q 18 865 76 807 q -40 1014 -40 924 m 115 0 l 115 719 l 238 719 l 238 0 l 115 0 z "},"Į":{"ha":390,"x_min":-17,"x_max":258,"o":"m 132 0 l 132 1000 l 258 1000 l 258 0 q 135 -77 181 -32 q 89 -171 89 -122 q 157 -235 89 -235 q 242 -212 207 -235 l 258 -300 q 135 -332 207 -332 q 22 -294 60 -332 q -17 -199 -17 -257 q 26 -86 -17 -137 q 132 0 68 -35 z "},"į":{"ha":353,"x_min":-33,"x_max":263,"o":"m 176 840 q 114 863 138 840 q 90 925 90 886 q 114 987 90 964 q 176 1010 138 1010 q 239 987 215 1010 q 263 925 263 964 q 238 864 263 888 q 176 840 214 840 m 115 0 l 115 719 l 238 719 l 238 0 q 117 -75 163 -29 q 72 -169 72 -121 q 142 -235 72 -235 q 225 -212 192 -235 l 242 -300 q 117 -332 190 -332 q 4 -294 42 -332 q -33 -197 -33 -257 q 115 0 -33 -87 z "},"İ":{"ha":390,"x_min":108,"x_max":282,"o":"m 257 1146 q 244 1134 257 1146 q 194 1122 232 1122 q 133 1146 157 1122 q 108 1207 108 1169 q 132 1269 108 1246 q 194 1293 156 1293 q 258 1269 233 1293 q 282 1207 282 1246 q 257 1146 282 1169 m 132 0 l 132 1000 l 258 1000 l 258 0 l 132 0 z "},"ı":{"ha":353,"x_min":115,"x_max":238,"o":"m 115 0 l 115 719 l 238 719 l 238 0 l 115 0 z "},"Ĳ":{"ha":917,"x_min":132,"x_max":796,"o":"m 132 0 l 132 1000 l 258 1000 l 258 0 l 132 0 m 438 4 l 449 122 q 536 107 489 107 q 669 249 669 107 l 669 1000 l 796 1000 l 796 251 q 732 52 796 119 q 549 -15 668 -15 q 438 4 488 -15 z "},"ĳ":{"ha":710,"x_min":90,"x_max":621,"o":"m 176 840 q 114 863 138 840 q 90 925 90 886 q 114 987 90 964 q 176 1010 138 1010 q 239 987 215 1010 q 263 925 263 964 q 238 864 263 888 q 176 840 214 840 m 535 840 q 472 863 496 840 q 449 925 449 886 q 472 987 449 964 q 535 1010 496 1010 q 597 986 572 1010 q 621 925 621 963 q 597 864 621 888 q 535 840 572 840 m 115 0 l 115 719 l 238 719 l 238 0 l 115 0 m 596 -53 q 542 -222 596 -162 q 383 -282 488 -282 q 281 -267 315 -282 l 290 -161 q 361 -172 324 -172 q 474 -44 474 -172 l 474 719 l 596 719 l 596 -53 z "},"Ĵ":{"ha":526,"x_min":47,"x_max":535,"o":"m 460 1074 l 321 1239 l 182 1074 l 107 1074 l 247 1331 l 394 1331 l 535 1074 l 460 1074 m 47 4 l 58 122 q 146 107 99 107 q 279 249 279 107 l 279 1000 l 406 1000 l 406 251 q 342 52 406 119 q 158 -15 278 -15 q 47 4 97 -15 z "},"ĵ":{"ha":358,"x_min":-72,"x_max":392,"o":"m 317 793 l 178 958 l 39 793 l -36 793 l 104 1050 l 251 1050 l 392 793 l 317 793 m 243 -53 q 189 -222 243 -162 q 31 -282 135 -282 q -72 -267 -37 -282 l -62 -161 q 8 -172 -29 -172 q 121 -44 121 -172 l 121 719 l 243 719 l 243 -53 z "},"Ķ":{"ha":881,"x_min":132,"x_max":854,"o":"m 132 0 l 132 1000 l 258 1000 l 258 529 l 653 1000 l 815 1000 l 378 500 l 854 0 l 688 0 l 258 447 l 258 0 l 132 0 m 351 -328 l 401 -72 l 544 -72 l 433 -328 l 351 -328 z "},"ķ":{"ha":710,"x_min":115,"x_max":690,"o":"m 536 0 l 238 319 l 238 0 l 115 0 l 115 1056 l 238 1056 l 238 413 l 501 719 l 660 719 l 342 371 l 690 0 l 536 0 m 265 -328 l 315 -72 l 458 -72 l 347 -328 l 265 -328 z "},"Ĺ":{"ha":722,"x_min":132,"x_max":658,"o":"m 238 1074 l 157 1074 l 274 1331 l 440 1331 l 238 1074 m 132 0 l 132 1000 l 258 1000 l 258 118 l 658 118 l 658 0 l 132 0 z "},"ĺ":{"ha":353,"x_min":115,"x_max":421,"o":"m 218 1106 l 138 1106 l 254 1363 l 421 1363 l 218 1106 m 115 0 l 115 1056 l 238 1056 l 238 0 l 115 0 z "},"Ļ":{"ha":722,"x_min":132,"x_max":658,"o":"m 132 0 l 132 1000 l 258 1000 l 258 118 l 658 118 l 658 0 l 132 0 m 272 -328 l 322 -72 l 465 -72 l 354 -328 l 272 -328 z "},"ļ":{"ha":353,"x_min":58,"x_max":251,"o":"m 115 0 l 115 1056 l 238 1056 l 238 0 l 115 0 m 58 -328 l 108 -72 l 251 -72 l 140 -328 l 58 -328 z "},"Ľ":{"ha":722,"x_min":132,"x_max":658,"o":"m 132 0 l 132 1000 l 258 1000 l 258 118 l 658 118 l 658 0 l 132 0 m 390 717 l 410 1000 l 528 1000 l 468 717 l 390 717 z "},"ľ":{"ha":447,"x_min":115,"x_max":467,"o":"m 115 0 l 115 1056 l 238 1056 l 238 0 l 115 0 m 329 772 l 349 1056 l 467 1056 l 407 772 l 329 772 z "},"Ŀ":{"ha":722,"x_min":132,"x_max":658,"o":"m 132 0 l 132 1000 l 258 1000 l 258 118 l 658 118 l 658 0 l 132 0 m 601 489 q 590 478 601 489 q 540 467 578 467 q 478 489 503 467 q 454 547 454 511 q 478 609 454 586 q 540 632 501 632 q 601 609 578 632 q 625 547 625 586 q 601 489 625 511 z "},"ŀ":{"ha":440,"x_min":115,"x_max":479,"o":"m 115 0 l 115 1056 l 238 1056 l 238 0 l 115 0 m 456 482 q 444 471 456 482 q 394 460 432 460 q 333 482 357 460 q 308 540 308 504 q 332 602 308 579 q 394 625 356 625 q 456 602 432 625 q 479 540 479 579 q 456 482 479 504 z "},"Ł":{"ha":733,"x_min":17,"x_max":669,"o":"m 669 0 l 143 0 l 143 424 l 17 392 l 17 499 l 143 531 l 143 1000 l 269 1000 l 269 564 l 519 629 l 519 522 l 269 457 l 269 118 l 669 118 l 669 0 z "},"ł":{"ha":393,"x_min":14,"x_max":379,"o":"m 257 0 l 136 0 l 136 479 l 14 444 l 14 554 l 136 588 l 136 1056 l 257 1056 l 257 622 l 379 656 l 379 547 l 257 513 l 257 0 z "},"Ń":{"ha":1068,"x_min":132,"x_max":936,"o":"m 574 1074 l 493 1074 l 610 1331 l 776 1331 l 574 1074 m 132 0 l 132 1000 l 254 1000 l 815 203 l 815 1000 l 936 1000 l 936 0 l 813 0 l 251 778 l 251 0 l 132 0 z "},"ń":{"ha":858,"x_min":115,"x_max":750,"o":"m 469 793 l 389 793 l 506 1050 l 672 1050 l 469 793 m 115 0 l 115 719 l 236 719 l 236 599 l 240 599 q 472 735 307 735 q 682 652 614 735 q 750 429 750 569 l 750 0 l 629 0 l 629 381 q 583 542 629 482 q 438 603 536 603 q 288 541 339 603 q 238 371 238 479 l 238 0 l 115 0 z "},"Ņ":{"ha":1068,"x_min":132,"x_max":936,"o":"m 132 0 l 132 1000 l 254 1000 l 815 203 l 815 1000 l 936 1000 l 936 0 l 813 0 l 251 778 l 251 0 l 132 0 m 425 -328 l 475 -72 l 618 -72 l 507 -328 l 425 -328 z "},"ņ":{"ha":858,"x_min":115,"x_max":750,"o":"m 115 0 l 115 719 l 236 719 l 236 599 l 240 599 q 472 735 307 735 q 682 652 614 735 q 750 429 750 569 l 750 0 l 629 0 l 629 381 q 583 542 629 482 q 438 603 536 603 q 288 541 339 603 q 238 371 238 479 l 238 0 l 115 0 m 321 -328 l 371 -72 l 514 -72 l 403 -328 l 321 -328 z "},"Ň":{"ha":1068,"x_min":132,"x_max":936,"o":"m 607 1074 l 460 1074 l 319 1331 l 394 1331 l 533 1165 l 672 1331 l 747 1331 l 607 1074 m 132 0 l 132 1000 l 254 1000 l 815 203 l 815 1000 l 936 1000 l 936 0 l 813 0 l 251 778 l 251 0 l 132 0 z "},"ň":{"ha":858,"x_min":115,"x_max":750,"o":"m 503 793 l 356 793 l 215 1050 l 290 1050 l 429 885 l 568 1050 l 643 1050 l 503 793 m 115 0 l 115 719 l 236 719 l 236 599 l 240 599 q 472 735 307 735 q 682 652 614 735 q 750 429 750 569 l 750 0 l 629 0 l 629 381 q 583 542 629 482 q 438 603 536 603 q 288 541 339 603 q 238 371 238 479 l 238 0 l 115 0 z "},"Ō":{"ha":1121,"x_min":74,"x_max":1049,"o":"m 361 1143 l 361 1240 l 761 1240 l 761 1143 l 361 1143 m 74 500 q 210 871 74 726 q 560 1015 347 1015 q 911 871 774 1015 q 1049 500 1049 726 q 912 128 1049 272 q 560 -15 775 -15 q 209 128 344 -15 q 74 500 74 271 m 303 213 q 353 159 303 213 q 560 106 403 106 q 817 213 717 106 q 918 492 918 319 q 817 769 918 661 q 558 876 715 876 q 302 769 401 876 q 203 492 203 663 q 303 213 203 319 z "},"ō":{"ha":850,"x_min":61,"x_max":788,"o":"m 225 863 l 225 960 l 625 960 l 625 863 l 225 863 m 61 360 q 162 631 61 526 q 424 735 263 735 q 687 631 586 735 q 788 361 788 526 q 686 92 788 199 q 424 -15 585 -15 q 163 92 264 -15 q 61 360 61 199 m 424 99 q 597 169 532 99 q 661 356 661 240 q 592 534 661 464 q 424 604 524 604 q 254 535 319 604 q 189 356 189 465 q 253 169 189 240 q 424 99 318 99 z "},"Ŏ":{"ha":1121,"x_min":74,"x_max":1049,"o":"m 344 1294 l 447 1294 q 479 1210 447 1239 q 563 1181 511 1181 q 644 1210 613 1181 q 675 1294 675 1239 l 776 1294 q 720 1144 776 1200 q 563 1088 664 1088 q 403 1146 461 1088 q 344 1294 344 1204 m 74 500 q 210 871 74 726 q 560 1015 347 1015 q 911 871 774 1015 q 1049 500 1049 726 q 912 128 1049 272 q 560 -15 775 -15 q 209 128 344 -15 q 74 500 74 271 m 303 213 q 353 159 303 213 q 560 106 403 106 q 817 213 717 106 q 918 492 918 319 q 817 769 918 661 q 558 876 715 876 q 302 769 401 876 q 203 492 203 663 q 303 213 203 319 z "},"ŏ":{"ha":850,"x_min":61,"x_max":788,"o":"m 208 1014 l 311 1014 q 343 929 311 958 q 426 900 375 900 q 508 929 476 900 q 539 1014 539 958 l 640 1014 q 584 863 640 919 q 426 807 528 807 q 267 865 325 807 q 208 1014 208 924 m 61 360 q 162 631 61 526 q 424 735 263 735 q 687 631 586 735 q 788 361 788 526 q 686 92 788 199 q 424 -15 585 -15 q 163 92 264 -15 q 61 360 61 199 m 424 99 q 597 169 532 99 q 661 356 661 240 q 592 534 661 464 q 424 604 524 604 q 254 535 319 604 q 189 356 189 465 q 253 169 189 240 q 424 99 318 99 z "},"Ő":{"ha":1121,"x_min":74,"x_max":1049,"o":"m 692 1074 l 622 1074 l 753 1331 l 900 1331 l 692 1074 m 488 1074 l 418 1074 l 511 1331 l 658 1331 l 488 1074 m 74 500 q 210 871 74 726 q 560 1015 347 1015 q 911 871 774 1015 q 1049 500 1049 726 q 912 128 1049 272 q 560 -15 775 -15 q 209 128 344 -15 q 74 500 74 271 m 303 213 q 353 159 303 213 q 560 106 403 106 q 817 213 717 106 q 918 492 918 319 q 817 769 918 661 q 558 876 715 876 q 302 769 401 876 q 203 492 203 663 q 303 213 203 319 z "},"ő":{"ha":850,"x_min":61,"x_max":788,"o":"m 556 793 l 486 793 l 617 1050 l 764 1050 l 556 793 m 351 793 l 282 793 l 375 1050 l 522 1050 l 351 793 m 61 360 q 162 631 61 526 q 424 735 263 735 q 687 631 586 735 q 788 361 788 526 q 686 92 788 199 q 424 -15 585 -15 q 163 92 264 -15 q 61 360 61 199 m 424 99 q 597 169 532 99 q 661 356 661 240 q 592 534 661 464 q 424 604 524 604 q 254 535 319 604 q 189 356 189 465 q 253 169 189 240 q 424 99 318 99 z "},"Œ":{"ha":1369,"x_min":68,"x_max":1290,"o":"m 606 0 q 217 135 367 0 q 68 497 68 269 q 209 862 68 724 q 611 1000 350 1000 l 1290 1000 l 1290 868 l 835 868 l 835 569 l 1253 569 l 1253 451 l 835 451 l 835 118 l 1290 118 l 1290 0 l 606 0 m 610 868 q 310 765 422 868 q 197 494 197 661 q 305 221 197 324 q 607 118 413 118 l 708 118 l 708 868 l 610 868 z "},"œ":{"ha":1368,"x_min":61,"x_max":1313,"o":"m 1263 25 q 1049 -15 1169 -15 q 721 157 815 -15 q 600 31 678 76 q 424 -15 522 -15 q 163 92 264 -15 q 61 360 61 199 q 162 631 61 526 q 424 735 263 735 q 599 690 522 735 q 719 568 676 646 q 831 690 760 644 q 993 735 901 735 q 1231 630 1149 735 q 1313 386 1313 525 q 1308 322 1313 344 l 786 322 q 870 153 797 217 q 1065 90 943 90 q 1251 126 1168 90 l 1263 25 m 993 614 q 851 560 908 614 q 782 407 793 507 l 1196 407 q 1134 555 1189 496 q 993 614 1079 614 m 424 99 q 597 169 532 99 q 661 356 661 240 q 592 534 661 464 q 424 604 524 604 q 254 535 319 604 q 189 356 189 465 q 253 169 189 240 q 424 99 318 99 z "},"Ŕ":{"ha":824,"x_min":132,"x_max":790,"o":"m 451 1074 l 371 1074 l 488 1331 l 654 1331 l 451 1074 m 132 0 l 132 1000 l 353 1000 q 624 924 522 1000 q 725 708 725 849 q 633 486 725 565 q 394 407 557 424 l 790 0 l 626 0 l 258 396 l 258 0 l 132 0 m 364 868 l 258 868 l 258 503 l 360 503 q 535 552 474 503 q 596 696 596 601 q 533 822 596 775 q 364 868 471 868 z "},"ŕ":{"ha":529,"x_min":115,"x_max":510,"o":"m 307 793 l 226 793 l 343 1050 l 510 1050 l 307 793 m 115 0 l 115 719 l 235 719 l 235 599 l 239 599 q 486 735 300 735 l 481 593 q 295 533 353 594 q 238 349 238 472 l 238 0 l 115 0 z "},"Ŗ":{"ha":824,"x_min":132,"x_max":790,"o":"m 132 0 l 132 1000 l 353 1000 q 624 924 522 1000 q 725 708 725 849 q 633 486 725 565 q 394 407 557 424 l 790 0 l 626 0 l 258 396 l 258 0 l 132 0 m 364 868 l 258 868 l 258 503 l 360 503 q 535 552 474 503 q 596 696 596 601 q 533 822 596 775 q 364 868 471 868 m 319 -328 l 369 -72 l 513 -72 l 401 -328 l 319 -328 z "},"ŗ":{"ha":529,"x_min":61,"x_max":486,"o":"m 115 0 l 115 719 l 235 719 l 235 599 l 239 599 q 486 735 300 735 l 481 593 q 295 533 353 594 q 238 349 238 472 l 238 0 l 115 0 m 61 -328 l 111 -72 l 254 -72 l 143 -328 l 61 -328 z "},"Ř":{"ha":824,"x_min":132,"x_max":790,"o":"m 485 1074 l 338 1074 l 197 1331 l 272 1331 l 411 1165 l 550 1331 l 625 1331 l 485 1074 m 132 0 l 132 1000 l 353 1000 q 624 924 522 1000 q 725 708 725 849 q 633 486 725 565 q 394 407 557 424 l 790 0 l 626 0 l 258 396 l 258 0 l 132 0 m 364 868 l 258 868 l 258 503 l 360 503 q 535 552 474 503 q 596 696 596 601 q 533 822 596 775 q 364 868 471 868 z "},"ř":{"ha":529,"x_min":74,"x_max":501,"o":"m 361 793 l 214 793 l 74 1050 l 149 1050 l 288 885 l 426 1050 l 501 1050 l 361 793 m 115 0 l 115 719 l 235 719 l 235 599 l 239 599 q 486 735 300 735 l 481 593 q 295 533 353 594 q 238 349 238 472 l 238 0 l 115 0 z "},"Ś":{"ha":768,"x_min":74,"x_max":714,"o":"m 424 1074 l 343 1074 l 460 1331 l 626 1331 l 424 1074 m 74 39 l 82 161 q 353 106 204 106 q 524 149 464 106 q 583 272 583 193 q 531 392 583 351 q 371 460 479 433 q 143 561 213 497 q 74 743 74 625 q 156 940 74 864 q 399 1015 239 1015 q 664 965 536 1015 l 656 832 q 401 876 519 876 q 253 837 304 876 q 203 736 203 797 q 247 642 203 678 q 407 576 290 606 q 639 474 564 538 q 714 281 714 410 q 627 66 714 147 q 358 -15 540 -15 q 74 39 214 -15 z "},"ś":{"ha":636,"x_min":69,"x_max":589,"o":"m 358 793 l 278 793 l 394 1050 l 561 1050 l 358 793 m 69 28 l 79 129 q 296 90 179 90 q 471 193 471 90 q 434 265 471 239 q 296 317 397 292 q 129 390 182 344 q 76 524 76 436 q 150 677 76 619 q 351 735 224 735 q 553 696 458 735 l 543 571 q 351 604 451 604 q 197 518 197 604 q 232 453 197 476 q 357 411 267 431 q 533 338 478 385 q 589 199 589 290 q 515 41 589 97 q 301 -15 442 -15 q 69 28 178 -15 z "},"Ŝ":{"ha":768,"x_min":74,"x_max":714,"o":"m 522 1074 l 383 1239 l 244 1074 l 169 1074 l 310 1331 l 457 1331 l 597 1074 l 522 1074 m 74 39 l 82 161 q 353 106 204 106 q 524 149 464 106 q 583 272 583 193 q 531 392 583 351 q 371 460 479 433 q 143 561 213 497 q 74 743 74 625 q 156 940 74 864 q 399 1015 239 1015 q 664 965 536 1015 l 656 832 q 401 876 519 876 q 253 837 304 876 q 203 736 203 797 q 247 642 203 678 q 407 576 290 606 q 639 474 564 538 q 714 281 714 410 q 627 66 714 147 q 358 -15 540 -15 q 74 39 214 -15 z "},"ŝ":{"ha":636,"x_min":69,"x_max":589,"o":"m 457 793 l 318 958 l 179 793 l 104 793 l 244 1050 l 392 1050 l 532 793 l 457 793 m 69 28 l 79 129 q 296 90 179 90 q 471 193 471 90 q 434 265 471 239 q 296 317 397 292 q 129 390 182 344 q 76 524 76 436 q 150 677 76 619 q 351 735 224 735 q 553 696 458 735 l 543 571 q 351 604 451 604 q 197 518 197 604 q 232 453 197 476 q 357 411 267 431 q 533 338 478 385 q 589 199 589 290 q 515 41 589 97 q 301 -15 442 -15 q 69 28 178 -15 z "},"Ş":{"ha":768,"x_min":74,"x_max":714,"o":"m 357 -332 q 250 -315 289 -332 l 260 -235 q 339 -249 299 -249 q 424 -190 424 -249 q 398 -144 424 -160 q 310 -122 372 -128 l 338 -15 q 74 39 203 -12 l 82 161 q 353 106 204 106 q 524 149 464 106 q 583 272 583 193 q 531 392 583 351 q 371 460 479 433 q 143 561 213 497 q 74 743 74 625 q 156 940 74 864 q 399 1015 239 1015 q 664 965 536 1015 l 656 832 q 401 876 519 876 q 253 837 304 876 q 203 736 203 797 q 247 642 203 678 q 407 576 290 606 q 639 474 564 538 q 714 281 714 410 q 637 75 714 156 q 399 -14 560 -6 l 394 -75 q 528 -199 528 -89 q 483 -296 528 -260 q 357 -332 439 -332 z "},"ş":{"ha":636,"x_min":69,"x_max":589,"o":"m 299 -332 q 193 -315 232 -332 l 203 -235 q 282 -249 242 -249 q 367 -190 367 -249 q 341 -144 367 -160 q 253 -122 315 -128 l 281 -15 q 69 28 167 -11 l 79 129 q 296 90 179 90 q 471 193 471 90 q 434 265 471 239 q 296 317 397 292 q 129 390 182 344 q 76 524 76 436 q 150 677 76 619 q 351 735 224 735 q 553 696 458 735 l 543 571 q 351 604 451 604 q 197 518 197 604 q 232 453 197 476 q 357 411 267 431 q 533 338 478 385 q 589 199 589 290 q 526 50 589 106 q 342 -14 463 -6 l 338 -75 q 471 -199 471 -89 q 426 -296 471 -260 q 299 -332 381 -332 z "},"Š":{"ha":768,"x_min":74,"x_max":714,"o":"m 457 1074 l 310 1074 l 169 1331 l 244 1331 l 383 1165 l 522 1331 l 597 1331 l 457 1074 m 74 39 l 82 161 q 353 106 204 106 q 524 149 464 106 q 583 272 583 193 q 531 392 583 351 q 371 460 479 433 q 143 561 213 497 q 74 743 74 625 q 156 940 74 864 q 399 1015 239 1015 q 664 965 536 1015 l 656 832 q 401 876 519 876 q 253 837 304 876 q 203 736 203 797 q 247 642 203 678 q 407 576 290 606 q 639 474 564 538 q 714 281 714 410 q 627 66 714 147 q 358 -15 540 -15 q 74 39 214 -15 z "},"š":{"ha":636,"x_min":69,"x_max":589,"o":"m 392 793 l 244 793 l 104 1050 l 179 1050 l 318 885 l 457 1050 l 532 1050 l 392 793 m 69 28 l 79 129 q 296 90 179 90 q 471 193 471 90 q 434 265 471 239 q 296 317 397 292 q 129 390 182 344 q 76 524 76 436 q 150 677 76 619 q 351 735 224 735 q 553 696 458 735 l 543 571 q 351 604 451 604 q 197 518 197 604 q 232 453 197 476 q 357 411 267 431 q 533 338 478 385 q 589 199 589 290 q 515 41 589 97 q 301 -15 442 -15 q 69 28 178 -15 z "},"Ţ":{"ha":774,"x_min":31,"x_max":743,"o":"m 31 869 l 31 1000 l 743 1000 l 743 869 l 451 869 l 451 0 l 325 0 l 325 869 l 31 869 m 269 -328 l 319 -72 l 463 -72 l 351 -328 l 269 -328 z "},"ţ":{"ha":539,"x_min":26,"x_max":496,"o":"m 153 218 l 153 597 l 26 597 l 26 719 l 160 719 l 175 911 l 275 911 l 275 719 l 485 719 l 485 597 l 275 597 l 275 225 q 394 99 275 99 q 486 113 440 99 l 496 3 q 375 -15 454 -15 q 153 218 153 -15 m 174 -328 l 224 -72 l 367 -72 l 256 -328 l 174 -328 z "},"Ť":{"ha":774,"x_min":31,"x_max":743,"o":"m 461 1074 l 314 1074 l 174 1331 l 249 1331 l 388 1165 l 526 1331 l 601 1331 l 461 1074 m 31 869 l 31 1000 l 743 1000 l 743 869 l 451 869 l 451 0 l 325 0 l 325 869 l 31 869 z "},"ť":{"ha":539,"x_min":26,"x_max":496,"o":"m 353 793 l 372 1076 l 490 1076 l 431 793 l 353 793 m 153 218 l 153 597 l 26 597 l 26 719 l 160 719 l 175 911 l 275 911 l 275 719 l 485 719 l 485 597 l 275 597 l 275 225 q 394 99 275 99 q 486 113 440 99 l 496 3 q 375 -15 454 -15 q 153 218 153 -15 z "},"Ŧ":{"ha":774,"x_min":31,"x_max":743,"o":"m 636 443 l 451 443 l 451 0 l 326 0 l 326 443 l 138 443 l 138 539 l 326 539 l 326 869 l 31 869 l 31 1000 l 743 1000 l 743 869 l 451 869 l 451 539 l 636 539 l 636 443 z "},"ŧ":{"ha":539,"x_min":26,"x_max":496,"o":"m 496 3 q 386 -15 453 -15 q 350 -14 361 -15 q 160 168 176 -1 q 153 317 153 247 l 153 343 l 39 343 l 39 422 l 153 422 l 153 597 l 26 597 l 26 719 l 160 719 l 175 911 l 275 911 l 275 719 l 485 719 l 485 597 l 275 597 l 275 422 l 467 422 l 467 343 l 275 343 q 278 207 275 296 q 394 99 283 99 q 486 113 440 99 l 496 3 z "},"Ũ":{"ha":1008,"x_min":125,"x_max":883,"o":"m 308 1110 l 294 1214 q 424 1274 361 1274 q 518 1251 461 1274 q 603 1228 575 1228 q 700 1283 658 1228 l 714 1181 q 604 1121 667 1121 q 508 1144 564 1121 q 422 1167 451 1167 q 308 1110 365 1167 m 125 449 l 125 1000 l 251 1000 l 251 450 q 503 104 251 104 q 757 451 757 104 l 757 1000 l 883 1000 l 883 449 q 786 105 883 225 q 503 -15 689 -15 q 125 449 125 -15 z "},"ũ":{"ha":850,"x_min":108,"x_max":735,"o":"m 229 829 l 215 933 q 344 993 282 993 q 439 970 382 993 q 524 947 496 947 q 621 1003 579 947 l 635 900 q 525 840 588 840 q 428 863 485 840 q 343 886 372 886 q 229 829 286 886 m 735 719 l 735 0 l 614 0 l 614 118 l 610 118 q 385 -15 546 -15 q 177 68 246 -15 q 108 290 108 151 l 108 719 l 231 719 l 231 318 q 276 158 231 217 q 417 99 321 99 q 562 163 511 99 q 613 331 613 226 l 613 719 l 735 719 z "},"Ū":{"ha":1008,"x_min":125,"x_max":883,"o":"m 304 1143 l 304 1240 l 704 1240 l 704 1143 l 304 1143 m 125 449 l 125 1000 l 251 1000 l 251 450 q 503 104 251 104 q 757 451 757 104 l 757 1000 l 883 1000 l 883 449 q 786 105 883 225 q 503 -15 689 -15 q 125 449 125 -15 z "},"ū":{"ha":850,"x_min":108,"x_max":735,"o":"m 225 863 l 225 960 l 625 960 l 625 863 l 225 863 m 735 719 l 735 0 l 614 0 l 614 118 l 610 118 q 385 -15 546 -15 q 177 68 246 -15 q 108 290 108 151 l 108 719 l 231 719 l 231 318 q 276 158 231 217 q 417 99 321 99 q 562 163 511 99 q 613 331 613 226 l 613 719 l 735 719 z "},"Ŭ":{"ha":1008,"x_min":125,"x_max":883,"o":"m 288 1294 l 390 1294 q 422 1210 390 1239 q 506 1181 454 1181 q 587 1210 556 1181 q 618 1294 618 1239 l 719 1294 q 663 1144 719 1200 q 506 1088 607 1088 q 346 1146 404 1088 q 288 1294 288 1204 m 125 449 l 125 1000 l 251 1000 l 251 450 q 503 104 251 104 q 757 451 757 104 l 757 1000 l 883 1000 l 883 449 q 786 105 883 225 q 503 -15 689 -15 q 125 449 125 -15 z "},"ŭ":{"ha":850,"x_min":108,"x_max":735,"o":"m 208 1014 l 311 1014 q 343 929 311 958 q 426 900 375 900 q 508 929 476 900 q 539 1014 539 958 l 640 1014 q 584 863 640 919 q 426 807 528 807 q 267 865 325 807 q 208 1014 208 924 m 735 719 l 735 0 l 614 0 l 614 118 l 610 118 q 385 -15 546 -15 q 177 68 246 -15 q 108 290 108 151 l 108 719 l 231 719 l 231 318 q 276 158 231 217 q 417 99 321 99 q 562 163 511 99 q 613 331 613 226 l 613 719 l 735 719 z "},"Ů":{"ha":1008,"x_min":125,"x_max":883,"o":"m 387 1123 q 362 1148 387 1123 q 338 1240 338 1172 q 387 1358 338 1308 q 506 1408 436 1408 q 623 1359 574 1408 q 672 1240 672 1310 q 624 1123 672 1172 q 506 1074 575 1074 q 387 1123 436 1074 m 506 1150 q 567 1175 544 1150 q 590 1238 590 1200 q 567 1300 590 1275 q 506 1325 543 1325 q 444 1300 469 1325 q 419 1238 419 1275 q 444 1175 419 1200 q 506 1150 468 1150 m 125 449 l 125 1000 l 251 1000 l 251 450 q 503 104 251 104 q 757 451 757 104 l 757 1000 l 883 1000 l 883 449 q 786 105 883 225 q 503 -15 689 -15 q 125 449 125 -15 z "},"ů":{"ha":850,"x_min":108,"x_max":735,"o":"m 308 842 q 283 867 308 842 q 258 960 258 892 q 308 1078 258 1028 q 426 1128 358 1128 q 544 1078 494 1128 q 593 960 593 1029 q 544 842 593 892 q 426 793 494 793 q 308 842 357 793 m 426 869 q 488 894 465 869 q 511 957 511 919 q 488 1019 511 994 q 426 1044 464 1044 q 365 1019 390 1044 q 340 957 340 994 q 365 894 340 919 q 426 869 389 869 m 735 719 l 735 0 l 614 0 l 614 118 l 610 118 q 385 -15 546 -15 q 177 68 246 -15 q 108 290 108 151 l 108 719 l 231 719 l 231 318 q 276 158 231 217 q 417 99 321 99 q 562 163 511 99 q 613 331 613 226 l 613 719 l 735 719 z "},"Ű":{"ha":1008,"x_min":125,"x_max":883,"o":"m 635 1074 l 565 1074 l 696 1331 l 843 1331 l 635 1074 m 431 1074 l 361 1074 l 454 1331 l 601 1331 l 431 1074 m 125 449 l 125 1000 l 251 1000 l 251 450 q 503 104 251 104 q 757 451 757 104 l 757 1000 l 883 1000 l 883 449 q 786 105 883 225 q 503 -15 689 -15 q 125 449 125 -15 z "},"ű":{"ha":850,"x_min":108,"x_max":764,"o":"m 556 793 l 486 793 l 617 1050 l 764 1050 l 556 793 m 351 793 l 282 793 l 375 1050 l 522 1050 l 351 793 m 735 719 l 735 0 l 614 0 l 614 118 l 610 118 q 385 -15 546 -15 q 177 68 246 -15 q 108 290 108 151 l 108 719 l 231 719 l 231 318 q 276 158 231 217 q 417 99 321 99 q 562 163 511 99 q 613 331 613 226 l 613 719 l 735 719 z "},"Ų":{"ha":1008,"x_min":125,"x_max":883,"o":"m 525 -332 q 413 -294 450 -332 q 375 -197 375 -257 q 503 -14 375 -99 q 485 -13 497 -14 q 465 -12 472 -12 q 125 449 125 8 l 125 1000 l 251 1000 l 251 450 q 253 408 251 422 q 503 104 265 104 q 757 451 757 104 l 757 1000 l 883 1000 l 883 449 q 626 1 883 75 q 481 -171 481 -89 q 486 -199 481 -189 q 549 -235 496 -235 q 633 -212 599 -235 l 650 -300 q 525 -332 597 -332 z "},"ų":{"ha":850,"x_min":108,"x_max":740,"o":"m 614 0 l 614 118 l 610 118 q 385 -15 546 -15 q 177 68 246 -15 q 108 290 108 151 l 108 719 l 231 719 l 231 318 q 276 158 231 217 q 417 99 321 99 q 562 163 511 99 q 613 331 613 226 l 613 719 l 735 719 l 735 0 q 615 -76 660 -29 q 571 -171 571 -122 q 639 -235 571 -235 q 724 -212 689 -235 l 740 -300 q 615 -332 688 -332 q 503 -294 540 -332 q 465 -197 465 -257 q 614 0 465 -87 z "},"Ŵ":{"ha":1518,"x_min":22,"x_max":1496,"o":"m 896 1074 l 757 1239 l 618 1074 l 543 1074 l 683 1331 l 831 1331 l 971 1074 l 896 1074 m 1026 0 l 757 815 l 513 0 l 363 0 l 22 1000 l 167 1000 l 444 144 l 692 1000 l 833 1000 l 1104 143 l 1360 1000 l 1496 1000 l 1178 0 l 1026 0 z "},"ŵ":{"ha":1178,"x_min":19,"x_max":1158,"o":"m 728 793 l 589 958 l 450 793 l 375 793 l 515 1050 l 663 1050 l 803 793 l 728 793 m 793 0 l 586 569 l 397 0 l 257 0 l 19 719 l 161 719 l 340 128 l 524 719 l 658 719 l 860 125 l 1024 719 l 1158 719 l 935 0 l 793 0 z "},"Ŷ":{"ha":850,"x_min":15,"x_max":835,"o":"m 564 1074 l 425 1239 l 286 1074 l 211 1074 l 351 1331 l 499 1331 l 639 1074 l 564 1074 m 490 0 l 364 0 l 364 351 l 15 1000 l 164 1000 l 431 476 l 694 1000 l 835 1000 l 490 354 l 490 0 z "},"ŷ":{"ha":756,"x_min":19,"x_max":735,"o":"m 517 793 l 378 958 l 239 793 l 164 793 l 304 1050 l 451 1050 l 592 793 l 517 793 m 190 -279 q 83 -264 125 -279 l 94 -160 q 168 -171 128 -171 q 248 -148 221 -171 q 299 -65 275 -125 l 321 -7 l 19 719 l 169 719 l 389 115 l 596 719 l 735 719 l 425 -62 q 387 -151 403 -119 q 344 -217 371 -183 q 281 -265 318 -250 q 190 -279 243 -279 z "},"Ÿ":{"ha":850,"x_min":15,"x_max":835,"o":"m 294 1122 q 235 1146 258 1122 q 213 1206 213 1169 q 235 1265 213 1242 q 294 1289 258 1289 q 356 1265 332 1289 q 379 1206 379 1242 q 356 1146 379 1169 q 294 1122 332 1122 m 551 1122 q 492 1146 515 1122 q 468 1206 468 1169 q 492 1265 468 1242 q 551 1289 515 1289 q 613 1265 589 1289 q 636 1206 636 1242 q 613 1146 636 1169 q 551 1122 589 1122 m 490 0 l 364 0 l 364 351 l 15 1000 l 164 1000 l 431 476 l 694 1000 l 835 1000 l 490 354 l 490 0 z "},"Ź":{"ha":821,"x_min":49,"x_max":771,"o":"m 450 1074 l 369 1074 l 486 1331 l 653 1331 l 450 1074 m 771 0 l 49 0 l 49 104 l 594 868 l 63 868 l 63 1000 l 756 1000 l 756 876 l 211 118 l 771 118 l 771 0 z "},"ź":{"ha":661,"x_min":51,"x_max":606,"o":"m 371 793 l 290 793 l 407 1050 l 574 1050 l 371 793 m 51 0 l 51 92 l 453 597 l 67 597 l 67 719 l 606 719 l 606 607 l 203 110 l 600 110 l 600 0 l 51 0 z "},"Ż":{"ha":821,"x_min":49,"x_max":771,"o":"m 472 1146 q 460 1134 472 1146 q 410 1122 447 1122 q 348 1146 372 1122 q 324 1207 324 1169 q 347 1269 324 1246 q 410 1293 371 1293 q 473 1269 449 1293 q 497 1207 497 1246 q 472 1146 497 1169 m 771 0 l 49 0 l 49 104 l 594 868 l 63 868 l 63 1000 l 756 1000 l 756 876 l 211 118 l 771 118 l 771 0 z "},"ż":{"ha":661,"x_min":51,"x_max":606,"o":"m 393 865 q 381 853 393 865 q 331 842 368 842 q 269 865 293 842 q 244 926 244 889 q 268 989 244 965 q 331 1013 292 1013 q 394 989 369 1013 q 418 926 418 965 q 393 865 418 889 m 51 0 l 51 92 l 453 597 l 67 597 l 67 719 l 606 719 l 606 607 l 203 110 l 600 110 l 600 0 l 51 0 z "},"Ž":{"ha":821,"x_min":49,"x_max":771,"o":"m 483 1074 l 336 1074 l 196 1331 l 271 1331 l 410 1165 l 549 1331 l 624 1331 l 483 1074 m 771 0 l 49 0 l 49 104 l 594 868 l 63 868 l 63 1000 l 756 1000 l 756 876 l 211 118 l 771 118 l 771 0 z "},"ž":{"ha":661,"x_min":51,"x_max":606,"o":"m 404 793 l 257 793 l 117 1050 l 192 1050 l 331 885 l 469 1050 l 544 1050 l 404 793 m 51 0 l 51 92 l 453 597 l 67 597 l 67 719 l 606 719 l 606 607 l 203 110 l 600 110 l 600 0 l 51 0 z "},"ƒ":{"ha":565,"x_min":0,"x_max":539,"o":"m 106 -282 q 0 -267 36 -282 l 10 -161 q 81 -172 43 -172 q 194 -44 194 -172 l 194 597 l 72 597 l 72 719 l 194 719 l 194 839 q 254 1010 194 950 q 418 1071 314 1071 q 539 1056 497 1071 l 529 954 q 442 963 497 963 q 317 840 317 963 l 317 719 l 519 719 l 519 597 l 317 597 l 317 -53 q 263 -222 317 -162 q 106 -282 208 -282 z "},"Ș":{"ha":768,"x_min":74,"x_max":714,"o":"m 74 39 l 82 161 q 353 106 204 106 q 524 149 464 106 q 583 272 583 193 q 531 392 583 351 q 371 460 479 433 q 143 561 213 497 q 74 743 74 625 q 156 940 74 864 q 399 1015 239 1015 q 664 965 536 1015 l 656 832 q 401 876 519 876 q 253 837 304 876 q 203 736 203 797 q 247 642 203 678 q 407 576 290 606 q 639 474 564 538 q 714 281 714 410 q 627 66 714 147 q 358 -15 540 -15 q 74 39 214 -15 m 275 -328 l 325 -72 l 468 -72 l 357 -328 l 275 -328 z "},"ș":{"ha":636,"x_min":69,"x_max":589,"o":"m 69 28 l 79 129 q 296 90 179 90 q 471 193 471 90 q 434 265 471 239 q 296 317 397 292 q 129 390 182 344 q 76 524 76 436 q 150 677 76 619 q 351 735 224 735 q 553 696 458 735 l 543 571 q 351 604 451 604 q 197 518 197 604 q 232 453 197 476 q 357 411 267 431 q 533 338 478 385 q 589 199 589 290 q 515 41 589 97 q 301 -15 442 -15 q 69 28 178 -15 m 210 -328 l 260 -72 l 403 -72 l 292 -328 l 210 -328 z "},"Ț":{"ha":774,"x_min":31,"x_max":743,"o":"m 31 869 l 31 1000 l 743 1000 l 743 869 l 451 869 l 451 0 l 325 0 l 325 869 l 31 869 m 269 -328 l 319 -72 l 463 -72 l 351 -328 l 269 -328 z "},"ț":{"ha":539,"x_min":26,"x_max":496,"o":"m 153 218 l 153 597 l 26 597 l 26 719 l 160 719 l 175 911 l 275 911 l 275 719 l 485 719 l 485 597 l 275 597 l 275 225 q 394 99 275 99 q 486 113 440 99 l 496 3 q 375 -15 454 -15 q 153 218 153 -15 m 174 -328 l 224 -72 l 367 -72 l 256 -328 l 174 -328 z "},"ȷ":{"ha":358,"x_min":-72,"x_max":243,"o":"m 243 -53 q 189 -222 243 -162 q 31 -282 135 -282 q -72 -267 -37 -282 l -62 -161 q 8 -172 -29 -172 q 121 -44 121 -172 l 121 719 l 243 719 l 243 -53 z "},"ˆ":{"ha":694,"x_min":133,"x_max":561,"o":"m 486 793 l 347 958 l 208 793 l 133 793 l 274 1050 l 421 1050 l 561 793 l 486 793 z "},"ˇ":{"ha":694,"x_min":133,"x_max":561,"o":"m 421 793 l 274 793 l 133 1050 l 208 1050 l 347 885 l 486 1050 l 561 1050 l 421 793 z "},"˘":{"ha":694,"x_min":131,"x_max":563,"o":"m 131 1014 l 233 1014 q 265 929 233 958 q 349 900 297 900 q 430 929 399 900 q 461 1014 461 958 l 563 1014 q 506 863 563 919 q 349 807 450 807 q 189 865 247 807 q 131 1014 131 924 z "},"˙":{"ha":694,"x_min":261,"x_max":435,"o":"m 410 865 q 397 853 410 865 q 347 842 385 842 q 285 865 310 842 q 261 926 261 889 q 285 989 261 965 q 347 1013 308 1013 q 410 989 386 1013 q 435 926 435 965 q 410 865 435 889 z "},"˚":{"ha":694,"x_min":181,"x_max":515,"o":"m 230 842 q 205 867 230 842 q 181 960 181 892 q 231 1078 181 1028 q 349 1128 281 1128 q 466 1078 417 1128 q 515 960 515 1029 q 466 842 515 892 q 349 793 417 793 q 230 842 279 793 m 349 869 q 410 894 388 869 q 433 957 433 919 q 410 1019 433 994 q 349 1044 386 1044 q 288 1019 313 1044 q 263 957 263 994 q 287 894 263 919 q 349 869 311 869 z "},"˛":{"ha":694,"x_min":242,"x_max":517,"o":"m 500 -212 l 517 -300 q 392 -332 464 -332 q 279 -294 317 -332 q 242 -197 242 -257 q 392 0 242 -87 l 492 0 q 346 -171 346 -89 q 414 -235 346 -235 q 500 -212 465 -235 z "},"˜":{"ha":694,"x_min":138,"x_max":557,"o":"m 151 829 l 138 933 q 267 993 204 993 q 361 970 304 993 q 446 947 418 947 q 543 1003 501 947 l 557 900 q 447 840 510 840 q 351 863 407 840 q 265 886 294 886 q 151 829 208 886 z "},"˝":{"ha":694,"x_min":204,"x_max":686,"o":"m 478 793 l 408 793 l 539 1050 l 686 1050 l 478 793 m 274 793 l 204 793 l 297 1050 l 444 1050 l 274 793 z "},"̦":{"ha":694,"x_min":239,"x_max":432,"o":"m 239 -328 l 289 -72 l 432 -72 l 321 -328 l 239 -328 z "},"Δ":{"ha":965,"x_min":26,"x_max":939,"o":"m 26 0 l 408 1000 l 557 1000 l 939 0 l 26 0 m 760 114 l 478 851 l 196 114 l 760 114 z "},"Ω":{"ha":1119,"x_min":67,"x_max":1051,"o":"m 463 101 l 463 0 l 67 0 l 67 118 l 283 118 q 132 288 188 181 q 76 515 76 394 q 212 876 76 736 q 560 1015 347 1015 q 908 875 772 1015 q 1042 515 1043 735 q 987 288 1043 396 q 833 118 931 179 l 1051 118 l 1051 0 l 656 0 l 656 101 q 839 251 764 140 q 913 489 914 363 q 815 769 914 661 q 558 876 717 876 q 304 769 403 876 q 206 489 206 661 q 278 253 206 363 q 463 101 351 143 z "},"μ":{"ha":851,"x_min":108,"x_max":735,"o":"m 385 -15 q 231 50 281 -15 l 231 -264 l 108 -264 l 108 719 l 231 719 l 231 318 q 276 158 231 217 q 417 99 321 99 q 562 163 511 99 q 613 331 613 226 l 613 719 l 735 719 l 735 0 l 614 0 l 614 118 l 610 118 q 385 -15 546 -15 z "},"π":{"ha":907,"x_min":38,"x_max":869,"o":"m 686 225 q 789 99 686 99 q 860 111 828 99 l 869 1 q 768 -15 832 -15 q 564 218 564 -15 l 564 597 l 299 597 l 299 0 l 178 0 l 178 597 l 38 597 l 38 719 l 864 719 l 864 597 l 686 597 l 686 225 z "},"Ẁ":{"ha":1518,"x_min":22,"x_max":1496,"o":"m 718 1074 l 514 1331 l 681 1331 l 797 1074 l 718 1074 m 1026 0 l 757 815 l 513 0 l 363 0 l 22 1000 l 167 1000 l 444 144 l 692 1000 l 833 1000 l 1104 143 l 1360 1000 l 1496 1000 l 1178 0 l 1026 0 z "},"ẁ":{"ha":1178,"x_min":19,"x_max":1158,"o":"m 550 793 l 346 1050 l 513 1050 l 629 793 l 550 793 m 793 0 l 586 569 l 397 0 l 257 0 l 19 719 l 161 719 l 340 128 l 524 719 l 658 719 l 860 125 l 1024 719 l 1158 719 l 935 0 l 793 0 z "},"Ẃ":{"ha":1518,"x_min":22,"x_max":1496,"o":"m 797 1074 l 717 1074 l 833 1331 l 1000 1331 l 797 1074 m 1026 0 l 757 815 l 513 0 l 363 0 l 22 1000 l 167 1000 l 444 144 l 692 1000 l 833 1000 l 1104 143 l 1360 1000 l 1496 1000 l 1178 0 l 1026 0 z "},"ẃ":{"ha":1178,"x_min":19,"x_max":1158,"o":"m 629 793 l 549 793 l 665 1050 l 832 1050 l 629 793 m 793 0 l 586 569 l 397 0 l 257 0 l 19 719 l 161 719 l 340 128 l 524 719 l 658 719 l 860 125 l 1024 719 l 1158 719 l 935 0 l 793 0 z "},"Ẅ":{"ha":1518,"x_min":22,"x_max":1496,"o":"m 626 1122 q 567 1146 590 1122 q 544 1206 544 1169 q 567 1265 544 1242 q 626 1289 590 1289 q 688 1265 664 1289 q 711 1206 711 1242 q 688 1146 711 1169 q 626 1122 664 1122 m 883 1122 q 824 1146 847 1122 q 800 1206 800 1169 q 824 1265 800 1242 q 883 1289 847 1289 q 944 1265 921 1289 q 968 1206 968 1242 q 944 1146 968 1169 q 883 1122 921 1122 m 1026 0 l 757 815 l 513 0 l 363 0 l 22 1000 l 167 1000 l 444 144 l 692 1000 l 833 1000 l 1104 143 l 1360 1000 l 1496 1000 l 1178 0 l 1026 0 z "},"ẅ":{"ha":1178,"x_min":19,"x_max":1158,"o":"m 458 842 q 399 865 422 842 q 376 925 376 889 q 399 985 376 961 q 458 1008 422 1008 q 519 985 496 1008 q 543 925 543 961 q 519 865 543 889 q 458 842 496 842 m 715 842 q 656 865 679 842 q 632 925 632 889 q 656 985 632 961 q 715 1008 679 1008 q 776 985 753 1008 q 800 925 800 961 q 776 865 800 889 q 715 842 753 842 m 793 0 l 586 569 l 397 0 l 257 0 l 19 719 l 161 719 l 340 128 l 524 719 l 658 719 l 860 125 l 1024 719 l 1158 719 l 935 0 l 793 0 z "},"Ỳ":{"ha":850,"x_min":15,"x_max":835,"o":"m 386 1074 l 182 1331 l 349 1331 l 465 1074 l 386 1074 m 490 0 l 364 0 l 364 351 l 15 1000 l 164 1000 l 431 476 l 694 1000 l 835 1000 l 490 354 l 490 0 z "},"ỳ":{"ha":756,"x_min":19,"x_max":735,"o":"m 339 793 l 135 1050 l 301 1050 l 418 793 l 339 793 m 190 -279 q 83 -264 125 -279 l 94 -160 q 168 -171 128 -171 q 248 -148 221 -171 q 299 -65 275 -125 l 321 -7 l 19 719 l 169 719 l 389 115 l 596 719 l 735 719 l 425 -62 q 387 -151 403 -119 q 344 -217 371 -183 q 281 -265 318 -250 q 190 -279 243 -279 z "},"–":{"ha":694,"x_min":42,"x_max":653,"o":"m 42 421 l 42 538 l 653 538 l 653 421 l 42 421 z "},"—":{"ha":1389,"x_min":51,"x_max":1338,"o":"m 51 421 l 51 538 l 1338 538 l 1338 421 l 51 421 z "},"‘":{"ha":311,"x_min":54,"x_max":257,"o":"m 257 1056 q 196 719 210 878 l 54 719 q 167 1056 99 907 l 257 1056 z "},"’":{"ha":311,"x_min":54,"x_max":257,"o":"m 54 719 q 115 1056 103 911 l 257 1056 q 144 719 217 882 l 54 719 z "},"‚":{"ha":311,"x_min":51,"x_max":254,"o":"m 51 -222 q 113 113 99 -44 l 254 113 q 142 -222 211 -72 l 51 -222 z "},"“":{"ha":563,"x_min":54,"x_max":508,"o":"m 257 1056 q 196 719 210 878 l 54 719 q 167 1056 99 907 l 257 1056 m 508 1056 q 447 719 461 878 l 306 719 q 418 1056 350 907 l 508 1056 z "},"”":{"ha":563,"x_min":54,"x_max":508,"o":"m 54 719 q 115 1056 103 911 l 257 1056 q 144 719 217 882 l 54 719 m 306 719 q 367 1056 354 911 l 508 1056 q 396 719 468 882 l 306 719 z "},"„":{"ha":563,"x_min":51,"x_max":506,"o":"m 51 -222 q 113 113 99 -44 l 254 113 q 142 -222 211 -72 l 51 -222 m 303 -222 q 364 113 350 -44 l 506 113 q 393 -222 463 -72 l 303 -222 z "},"†":{"ha":697,"x_min":50,"x_max":653,"o":"m 653 683 l 403 697 l 419 -139 l 283 -139 l 300 697 l 50 683 l 50 814 l 297 799 l 283 1056 l 419 1056 l 404 799 l 653 814 l 653 683 z "},"‡":{"ha":697,"x_min":50,"x_max":653,"o":"m 653 106 l 406 119 l 419 -139 l 283 -139 l 297 119 l 50 106 l 50 226 l 296 213 l 285 458 l 296 697 l 50 683 l 50 814 l 297 799 l 283 1056 l 419 1056 l 406 799 l 653 814 l 653 683 l 407 697 l 418 458 l 406 213 l 653 226 l 653 106 z "},"•":{"ha":476,"x_min":96,"x_max":381,"o":"m 96 474 q 135 578 96 538 q 238 618 175 618 q 341 578 301 618 q 381 474 381 538 q 340 371 381 411 q 238 331 300 331 q 135 371 175 331 q 96 474 96 411 z "},"…":{"ha":936,"x_min":61,"x_max":875,"o":"m 150 -15 q 86 10 111 -15 q 61 74 61 36 q 86 139 61 113 q 150 165 111 165 q 213 139 188 165 q 239 74 239 113 q 213 10 239 36 q 150 -15 188 -15 m 468 -15 q 404 10 429 -15 q 379 74 379 36 q 404 139 379 113 q 468 165 429 165 q 531 139 506 165 q 557 74 557 113 q 531 10 557 36 q 468 -15 506 -15 m 786 -15 q 722 10 747 -15 q 697 74 697 36 q 722 139 697 113 q 786 165 747 165 q 849 139 824 165 q 875 74 875 113 q 849 10 875 36 q 786 -15 824 -15 z "},"‰":{"ha":1757,"x_min":43,"x_max":1714,"o":"m 543 753 q 472 563 543 638 q 292 489 401 489 q 113 563 182 489 q 43 753 43 636 q 113 943 43 871 q 292 1015 183 1015 q 472 943 401 1015 q 543 753 543 871 m 893 1000 l 1006 1000 l 304 0 l 192 0 l 893 1000 m 292 911 q 185 867 225 911 q 144 750 144 824 q 184 627 144 674 q 292 581 224 581 q 401 627 361 581 q 442 750 442 674 q 399 867 442 822 q 292 911 357 911 m 1214 249 q 1284 439 1214 367 q 1463 511 1354 511 q 1643 439 1572 511 q 1714 249 1714 367 q 1644 59 1714 133 q 1463 -15 1574 -15 q 1283 59 1353 -15 q 1214 249 1214 133 m 651 249 q 722 439 651 367 q 901 511 793 511 q 1081 439 1010 511 q 1151 249 1151 367 q 1081 59 1151 133 q 901 -15 1011 -15 q 722 59 792 -15 q 651 249 651 133 m 1463 76 q 1573 122 1533 76 q 1613 246 1613 168 q 1570 363 1613 318 q 1463 407 1528 407 q 1356 363 1396 407 q 1315 246 1315 319 q 1355 123 1315 169 q 1463 76 1394 76 m 901 76 q 1011 123 971 76 q 1051 246 1051 169 q 1008 363 1051 318 q 900 407 965 407 q 793 363 833 407 q 753 246 753 319 q 793 123 753 169 q 901 76 833 76 z "},"‹":{"ha":472,"x_min":51,"x_max":403,"o":"m 275 42 l 51 360 l 254 679 l 396 679 l 192 360 l 403 42 l 275 42 z "},"›":{"ha":472,"x_min":68,"x_max":419,"o":"m 196 42 l 68 42 l 279 360 l 76 679 l 217 679 l 419 360 l 196 42 z "},"⁄":{"ha":113,"x_min":-351,"x_max":464,"o":"m -351 0 l 350 1000 l 464 1000 l -237 0 l -351 0 z "},"⁰":{"ha":521,"x_min":50,"x_max":471,"o":"m 260 471 q 106 543 163 471 q 50 742 50 615 q 107 941 50 867 q 258 1015 164 1015 q 413 941 354 1015 q 471 742 471 867 q 415 543 471 615 q 260 471 358 471 m 260 557 q 344 604 314 557 q 374 739 374 651 q 343 869 374 822 q 258 915 313 915 q 176 868 206 915 q 146 736 146 821 q 176 603 146 650 q 260 557 207 557 z "},"⁴":{"ha":521,"x_min":33,"x_max":476,"o":"m 33 588 l 33 651 l 286 1000 l 390 1000 l 390 663 l 476 663 l 476 588 l 390 588 l 390 478 l 297 478 l 297 588 l 33 588 m 122 663 l 297 663 l 297 903 l 122 663 z "},"€":{"ha":974,"x_min":32,"x_max":914,"o":"m 911 31 q 689 -15 815 -12 q 644 -14 658 -15 q 341 93 464 -6 q 181 361 218 192 l 33 361 l 56 439 l 169 439 q 167 497 167 478 q 169 553 167 517 l 32 553 l 54 629 l 181 629 q 349 911 218 807 q 664 1015 479 1015 q 914 967 822 1015 l 888 839 q 672 882 799 882 q 451 813 544 882 q 322 629 357 744 l 776 629 l 754 553 l 300 553 q 296 496 296 526 q 299 439 296 475 l 733 439 l 711 361 l 317 361 q 438 181 349 249 q 656 103 526 113 q 699 101 669 101 q 892 142 799 103 l 911 31 z "},"₹":{"ha":797,"x_min":65,"x_max":739,"o":"m 244 403 l 233 390 l 621 0 l 450 0 l 67 396 l 67 482 l 178 482 q 342 525 281 482 q 413 650 403 568 l 65 650 l 65 742 l 407 742 q 346 835 392 799 q 229 881 300 871 q 169 885 200 885 l 67 885 l 67 1000 l 739 1000 l 739 893 l 451 893 q 536 742 524 838 l 739 742 l 739 650 l 533 650 q 450 478 522 543 q 244 403 378 413 z "},"ℓ":{"ha":669,"x_min":111,"x_max":578,"o":"m 553 11 q 386 -15 489 -15 q 115 276 131 -15 q 111 396 111 335 l 111 654 q 349 1015 118 1015 q 516 932 458 1015 q 576 693 574 849 q 578 668 578 693 l 576 643 q 483 397 567 490 q 271 296 400 303 q 254 295 265 296 q 239 294 243 294 q 246 271 240 283 q 410 97 257 97 l 435 97 q 543 118 488 101 l 553 11 m 232 633 l 232 379 q 256 381 247 379 q 400 456 346 385 q 454 653 454 528 q 346 876 454 876 q 257 817 282 876 q 232 633 232 758 z "},"™":{"ha":1081,"x_min":17,"x_max":1004,"o":"m 17 906 l 17 1000 l 394 1000 l 394 906 l 253 906 l 253 492 l 157 492 l 157 906 l 17 906 m 451 492 l 451 1000 l 554 1000 l 735 614 l 908 1000 l 1004 1000 l 1004 492 l 919 492 l 919 854 l 763 518 l 694 518 l 539 850 l 539 492 l 451 492 z "},"Ω":{"ha":1119,"x_min":67,"x_max":1051,"o":"m 463 101 l 463 0 l 67 0 l 67 118 l 283 118 q 132 288 188 181 q 76 515 76 394 q 212 876 76 736 q 560 1015 347 1015 q 908 875 772 1015 q 1042 515 1043 735 q 987 288 1043 396 q 833 118 931 179 l 1051 118 l 1051 0 l 656 0 l 656 101 q 839 251 764 140 q 913 489 914 363 q 815 769 914 661 q 558 876 717 876 q 304 769 403 876 q 206 489 206 661 q 278 253 206 363 q 463 101 351 143 z "},"℮":{"ha":993,"x_min":71,"x_max":921,"o":"m 226 353 l 226 144 q 236 119 226 132 q 497 8 343 8 q 771 133 661 8 l 832 133 q 685 25 774 65 q 496 -15 597 -15 q 195 97 319 -15 q 71 367 71 208 q 195 639 71 526 q 496 751 319 751 q 797 639 672 751 q 921 367 921 526 l 921 357 l 232 357 q 226 353 226 357 m 232 378 l 761 378 q 765 383 765 378 l 765 593 q 754 619 765 608 q 497 728 649 728 q 238 615 343 728 q 226 589 226 607 l 226 383 q 232 378 226 378 z "},"∂":{"ha":817,"x_min":61,"x_max":754,"o":"m 382 -15 q 149 73 238 -15 q 61 299 61 161 q 164 563 61 458 q 419 668 267 668 q 636 539 563 668 q 511 822 604 708 q 269 983 418 936 l 308 1071 q 642 845 531 1013 q 754 469 754 678 q 651 117 754 249 q 382 -15 549 -15 m 419 549 q 253 479 318 549 q 188 301 188 410 q 242 151 188 208 q 388 94 296 94 q 558 171 494 94 q 621 350 621 247 q 564 493 621 438 q 419 549 507 549 z "},"∆":{"ha":965,"x_min":26,"x_max":939,"o":"m 26 0 l 408 1000 l 557 1000 l 939 0 l 26 0 m 760 114 l 478 851 l 196 114 l 760 114 z "},"∏":{"ha":986,"x_min":126,"x_max":860,"o":"m 126 -174 l 126 1000 l 860 1000 l 860 -174 l 733 -174 l 733 882 l 253 882 l 253 -174 l 126 -174 z "},"∑":{"ha":786,"x_min":47,"x_max":740,"o":"m 372 457 l 47 885 l 47 1000 l 713 1000 l 713 878 l 213 878 l 518 476 l 194 -54 l 740 -54 l 740 -172 l 47 -172 l 47 -78 l 372 457 z "},"−":{"ha":693,"x_min":46,"x_max":647,"o":"m 647 431 l 46 431 l 46 539 l 647 539 l 647 431 z "},"∕":{"ha":113,"x_min":-351,"x_max":464,"o":"m -351 0 l 350 1000 l 464 1000 l -237 0 l -351 0 z "},"√":{"ha":767,"x_min":24,"x_max":753,"o":"m 447 0 l 308 0 l 139 449 l 24 449 l 24 561 l 231 561 l 379 111 l 633 1056 l 753 1056 l 447 0 z "},"∞":{"ha":894,"x_min":51,"x_max":843,"o":"m 625 250 q 447 351 510 250 q 267 250 385 250 q 112 313 172 250 q 51 474 51 375 q 113 635 51 574 q 267 696 174 696 q 447 597 372 696 q 625 696 517 696 q 781 635 719 696 q 843 474 843 574 q 782 313 843 375 q 625 250 721 250 m 271 338 q 362 374 329 338 q 394 471 394 410 q 359 561 394 526 q 271 596 324 596 q 184 562 217 596 q 151 471 151 528 q 183 374 151 411 q 271 338 215 338 m 621 338 q 710 374 678 338 q 743 471 743 411 q 708 562 743 528 q 621 596 674 596 q 534 562 567 596 q 501 471 501 528 q 533 374 501 411 q 621 338 565 338 z "},"∫":{"ha":579,"x_min":0,"x_max":549,"o":"m 117 -279 q 0 -264 40 -279 l 10 -157 q 96 -167 44 -167 q 208 -49 208 -167 l 208 839 q 268 1010 208 950 q 432 1071 328 1071 q 549 1056 508 1071 l 538 940 q 453 950 504 950 q 331 824 331 950 l 331 -47 q 274 -219 331 -158 q 117 -279 217 -279 z "},"≈":{"ha":693,"x_min":46,"x_max":647,"o":"m 54 522 l 46 635 q 222 700 125 700 q 361 670 278 700 q 485 640 444 640 q 639 703 579 640 l 647 589 q 486 522 590 522 q 346 552 428 522 q 221 582 264 582 q 54 522 128 582 m 54 272 l 46 376 q 222 442 125 442 q 361 412 278 442 q 485 382 444 382 q 639 444 579 382 l 647 340 q 486 272 590 272 q 346 302 428 272 q 221 332 264 332 q 54 272 128 332 z "},"≠":{"ha":693,"x_min":46,"x_max":647,"o":"m 647 304 l 332 304 l 261 129 l 156 129 l 226 304 l 46 304 l 46 407 l 261 407 l 322 554 l 46 554 l 46 665 l 361 665 l 432 840 l 538 840 l 467 665 l 647 665 l 647 554 l 428 554 l 368 407 l 647 407 l 647 304 z "},"≤":{"ha":693,"x_min":46,"x_max":647,"o":"m 46 403 l 46 535 l 647 749 l 647 622 l 171 458 l 647 288 l 647 176 l 46 403 m 647 0 l 46 0 l 46 99 l 647 99 l 647 0 z "},"≥":{"ha":693,"x_min":46,"x_max":647,"o":"m 647 403 l 46 176 l 46 288 l 522 458 l 46 622 l 46 749 l 647 535 l 647 403 m 46 0 l 46 99 l 647 99 l 647 0 l 46 0 z "},"◊":{"ha":721,"x_min":47,"x_max":675,"o":"m 299 0 l 47 457 l 299 917 l 422 917 l 675 457 l 422 0 l 299 0 m 361 94 l 553 457 l 361 800 l 169 457 l 361 94 z "},"ﬁ":{"ha":800,"x_min":28,"x_max":711,"o":"m 272 0 l 150 0 l 150 597 l 28 597 l 28 719 l 150 719 l 150 853 q 210 1019 150 960 q 374 1078 269 1078 q 476 1063 435 1078 q 474 957 454 1010 q 394 965 438 965 q 272 844 272 965 l 272 719 l 686 719 l 686 0 l 564 0 l 564 597 l 272 597 l 272 0 m 625 840 q 563 863 586 840 q 539 925 539 886 q 563 987 539 964 q 625 1010 586 1010 q 687 986 663 1010 q 711 925 711 963 q 687 864 711 888 q 625 840 663 840 z "},"ﬂ":{"ha":800,"x_min":28,"x_max":686,"o":"m 28 597 l 28 719 l 150 719 l 150 839 q 210 1010 150 950 q 374 1071 269 1071 q 475 1056 433 1071 l 469 954 q 394 963 444 963 q 272 840 272 963 l 272 719 l 453 719 l 453 597 l 272 597 l 272 0 l 150 0 l 150 597 l 28 597 m 564 0 l 564 1056 l 686 1056 l 686 0 l 564 0 z "}}}
